<svg xmlns="http://www.w3.org/2000/svg" xmlns:xlink="http://www.w3.org/1999/xlink" width="300" zoomAndPan="magnify" viewBox="0 0 224.87999 225" height="300" preserveAspectRatio="xMidYMid meet" version="1.0"><defs><clipPath id="c8d642f653"><path d="M 63 22.546875 L 159 22.546875 L 159 31 L 63 31 Z M 63 22.546875 " clip-rule="nonzero"/></clipPath></defs><g clip-path="url(#c8d642f653)"><path fill="#ab9c65" d="M 63.417969 22.613281 L 158.375 22.613281 L 158.375 30.046875 L 63.417969 30.046875 Z M 63.417969 22.613281 " fill-opacity="1" fill-rule="nonzero"/></g><path fill="#ab9c65" d="M 72.484375 38.171875 L 149.308594 38.171875 L 149.308594 45.601562 L 72.484375 45.601562 Z M 72.484375 38.171875 " fill-opacity="1" fill-rule="nonzero"/><path fill="#ab9c65" d="M 81.957031 54.421875 L 139.835938 54.421875 L 139.835938 61.855469 L 81.957031 61.855469 Z M 81.957031 54.421875 " fill-opacity="1" fill-rule="nonzero"/><path fill="#ab9c65" d="M 160.964844 70.757812 C 163.882812 69.363281 165.878906 69.003906 166.730469 69.855469 C 170.761719 73.878906 147.792969 103.332031 115.433594 135.644531 C 83.070312 167.957031 53.574219 190.886719 49.542969 186.863281 C 48.691406 186.011719 49.050781 184.019531 50.449219 181.101562 C 45.058594 189.460938 42.835938 195.242188 44.753906 197.15625 C 49.964844 202.363281 83.804688 177.011719 120.335938 140.539062 C 156.867188 104.066406 182.253906 70.277344 177.039062 65.070312 C 175.121094 63.15625 169.332031 65.378906 160.964844 70.757812 Z M 160.964844 70.757812 " fill-opacity="1" fill-rule="nonzero"/><path fill="#ab9c65" d="M 115.269531 135.800781 L 115.269531 69.65625 L 105.621094 69.65625 L 105.621094 145.238281 C 108.792969 142.199219 112.019531 139.050781 115.269531 135.800781 Z M 115.269531 135.800781 " fill-opacity="1" fill-rule="nonzero"/><path fill="#ab9c65" d="M 136.367188 113.726562 L 136.367188 69.65625 L 126.71875 69.65625 L 126.71875 124.09375 C 130.09375 120.554688 133.316406 117.089844 136.367188 113.726562 Z M 136.367188 113.726562 " fill-opacity="1" fill-rule="nonzero"/><path fill="#ab9c65" d="M 95.074219 155.105469 L 95.074219 69.65625 L 85.425781 69.65625 L 85.425781 163.691406 C 88.527344 161 91.75 158.140625 95.074219 155.105469 Z M 95.074219 155.105469 " fill-opacity="1" fill-rule="nonzero"/></svg>