<svg xmlns="http://www.w3.org/2000/svg" xmlns:xlink="http://www.w3.org/1999/xlink" width="300" zoomAndPan="magnify" viewBox="0 0 224.87999 225" height="300" preserveAspectRatio="xMidYMid meet" version="1.0"><defs><clipPath id="211ef3ebef"><path d="M 45 22.546875 L 183 22.546875 L 183 46 L 45 46 Z M 45 22.546875 " clip-rule="nonzero"/></clipPath><clipPath id="80ebbfc167"><path d="M 34.703125 43 L 189.871094 43 L 189.871094 70 L 34.703125 70 Z M 34.703125 43 " clip-rule="nonzero"/></clipPath><clipPath id="6c733c6e2b"><path d="M 85 61 L 100 61 L 100 213.695312 L 85 213.695312 Z M 85 61 " clip-rule="nonzero"/></clipPath></defs><g clip-path="url(#211ef3ebef)"><path fill="#ab9c65" d="M 114.984375 22.996094 C 147.933594 22.566406 175.5625 26.789062 182.78125 32.84375 C 170.375 29.164062 148.777344 26.898438 124.222656 27.222656 C 85.855469 27.726562 54.835938 34.351562 54.9375 42.019531 C 54.949219 43.097656 55.605469 44.144531 56.792969 45.140625 C 49.8125 43.070312 45.734375 40.550781 45.695312 37.792969 C 45.59375 30.125 76.617188 23.503906 114.984375 22.996094 Z M 114.984375 22.996094 " fill-opacity="1" fill-rule="nonzero"/></g><g clip-path="url(#80ebbfc167)"><path fill="#ab9c65" d="M 128.65625 43.773438 C 152.054688 43.773438 173.433594 45.042969 189.878906 47.132812 C 175.808594 48.457031 174.820312 48.121094 159.269531 48.121094 C 107.375 48.121094 63.148438 54.648438 65.3125 62.003906 C 66.03125 64.453125 69.09375 67.082031 85.527344 69.992188 C 55.34375 67.679688 34.703125 63.027344 34.703125 57.660156 C 34.703125 49.992188 76.769531 43.773438 128.65625 43.773438 Z M 128.65625 43.773438 " fill-opacity="1" fill-rule="nonzero"/></g><g clip-path="url(#6c733c6e2b)"><path fill="#ab9c65" d="M 99.992188 193.378906 L 99.992188 61.136719 C 94.484375 61.902344 89.558594 62.792969 85.460938 63.824219 L 85.460938 213.703125 L 85.527344 213.703125 C 89.554688 206.355469 94.410156 199.535156 99.992188 193.378906 Z M 99.992188 193.378906 " fill-opacity="1" fill-rule="nonzero"/></g><path fill="#ab9c65" d="M 131.761719 169.453125 L 131.761719 58.34375 C 126.800781 58.59375 121.925781 58.910156 117.230469 59.292969 L 117.230469 178.125 C 121.820312 174.863281 126.667969 171.957031 131.761719 169.453125 Z M 131.761719 169.453125 " fill-opacity="1" fill-rule="nonzero"/><path fill="#ab9c65" d="M 162.175781 159.890625 L 162.175781 57.601562 C 162.050781 57.601562 161.933594 57.601562 161.804688 57.601562 C 157.160156 57.601562 152.414062 57.660156 147.644531 57.769531 L 147.644531 163.199219 C 152.363281 161.773438 157.207031 160.648438 162.175781 159.890625 Z M 162.175781 159.890625 " fill-opacity="1" fill-rule="nonzero"/><path fill="#ab9c65" d="M 67.195312 43.773438 C 67.195312 43.773438 102.117188 35.394531 148.753906 39.90625 C 110.902344 36.296875 97.15625 36.582031 67.195312 43.773438 Z M 67.195312 43.773438 " fill-opacity="1" fill-rule="nonzero"/><path fill="#ab9c65" d="M 82.734375 34.675781 C 82.734375 34.675781 118.09375 28.398438 164.375 35.699219 C 126.808594 29.828125 113.074219 29.289062 82.734375 34.675781 Z M 82.734375 34.675781 " fill-opacity="1" fill-rule="nonzero"/></svg>