<svg width="17" height="12" viewBox="0 0 17 12" fill="none" xmlns="http://www.w3.org/2000/svg">
<path d="M16.7736 1.70787L9.04668 11.7067C8.97491 11.7997 8.8897 11.8735 8.79589 11.9238C8.70209 11.9741 8.60154 12 8.5 12C8.39846 12 8.29791 11.9741 8.20411 11.9238C8.1103 11.8735 8.02508 11.7997 7.95332 11.7067L0.226441 1.70787C0.0814532 1.52025 0 1.26578 0 1.00044C0 0.73511 0.0814532 0.480642 0.226441 0.293023C0.371429 0.105403 0.568074 0 0.773118 0C0.978161 0 1.17481 0.105403 1.31979 0.293023L8.5 9.58573L15.6802 0.293023C15.752 0.200123 15.8372 0.126431 15.931 0.0761538C16.0248 0.0258768 16.1254 0 16.2269 0C16.3284 0 16.4289 0.0258768 16.5227 0.0761538C16.6165 0.126431 16.7018 0.200123 16.7736 0.293023C16.8454 0.385923 16.9023 0.496211 16.9411 0.61759C16.98 0.73897 17 0.869064 17 1.00044C17 1.13182 16.98 1.26192 16.9411 1.3833C16.9023 1.50468 16.8454 1.61497 16.7736 1.70787Z" fill="#282A3B"/>
</svg>
