<svg width="1510" height="237" viewBox="0 0 1510 237" fill="none" xmlns="http://www.w3.org/2000/svg">
<path d="M1214.3 32.0389V99.4039C1214.3 106.661 1216.24 111.983 1220.11 115.347C1224.02 118.733 1229.18 120.415 1235.58 120.415H1259.08V128.801H1093.42V120.415H1117.19C1123.57 120.415 1128.7 118.733 1132.57 115.347C1136.44 111.983 1138.38 106.661 1138.38 99.4039V32.0389C1138.38 26.2101 1136.28 21.1647 1132.11 16.9256C1127.99 12.6865 1123.02 10.5669 1117.19 10.5669H1093.42V2.273H1259.08V10.5669H1235.58C1229.73 10.5669 1224.74 12.6865 1220.57 16.9256C1216.37 21.1647 1214.3 26.2101 1214.3 32.0389ZM1164.09 120.415V10.5669H1151.46V120.415H1164.09Z" fill="white"/>
<path d="M1510 120.415V128.801H1363.78V120.415H1378.24C1381.61 120.415 1384.37 119.678 1386.54 118.203C1388.68 116.729 1389.76 114.494 1389.76 111.476C1389.76 108.481 1387.85 104.634 1384.05 99.9568L1376.86 91.0178H1290.62C1286.86 96.8696 1285 102.03 1285 106.5C1285 110.992 1286.34 114.425 1289.05 116.821C1291.75 119.217 1295.25 120.415 1299.56 120.415H1317.71V128.801H1232.76V120.415C1236.81 120.415 1241.05 119.447 1245.47 117.466C1249.89 115.439 1253.76 113.02 1257.08 110.186C1260.44 107.306 1263.55 104.357 1266.39 101.339C1269.27 98.3441 1271.45 95.879 1272.93 93.9668C1274.45 92.0085 1275.23 90.9717 1275.23 90.8335L1325.26 27.1547L1320.38 21.1647C1317.29 17.3633 1314.05 14.6678 1310.61 13.0551C1307.16 11.3963 1302.44 10.5669 1296.42 10.5669H1281.04V2.273H1392.43L1487.79 120.415H1510ZM1297.99 81.7102H1369.49L1332.91 36.4623L1297.99 81.7102ZM1416.2 120.415H1431.22L1342.59 10.5669H1327.57L1416.2 120.415Z" fill="white"/>
<path d="M1.65848 235.986C0.552828 235.986 0 235.433 0 234.327V170.557C0 169.52 0.552828 168.99 1.65848 168.99H11.8858C12.7381 168.99 13.383 169.336 13.8207 170.004L27.7335 192.397C27.8487 192.581 27.9639 192.674 28.1021 192.674C28.2864 192.674 28.4015 192.581 28.4706 192.397L42.5677 170.004C42.9824 169.336 43.6273 168.99 44.5026 168.99H54.73C55.7665 168.99 56.2963 169.52 56.2963 170.557V234.327C56.2963 235.433 55.7665 235.986 54.73 235.986H44.5026C43.397 235.986 42.8442 235.433 42.8442 234.327V192.858C42.8442 192.628 42.752 192.466 42.5677 192.397C42.4295 192.351 42.3144 192.443 42.1992 192.674L32.5247 208.524C32.0179 209.215 31.373 209.538 30.5898 209.538H25.7065C24.8312 209.538 24.1862 209.215 23.7716 208.524L14.1892 192.674C14.051 192.443 13.9128 192.351 13.7286 192.397C13.5904 192.466 13.5443 192.628 13.5443 192.858V234.327C13.5443 235.433 12.9915 235.986 11.8858 235.986H1.65848Z" fill="#D2AE6D"/>
<path d="M124.09 178.943C124.09 180.002 123.56 180.509 122.523 180.509H91.6573C91.2887 180.509 91.1044 180.74 91.1044 181.154V195.807C91.1044 196.176 91.2887 196.36 91.6573 196.36H111.651C112.757 196.36 113.31 196.913 113.31 198.019V206.313C113.31 207.418 112.757 207.971 111.651 207.971H91.6573C91.2887 207.971 91.1044 208.156 91.1044 208.524V223.822C91.1044 224.19 91.2887 224.375 91.6573 224.375H122.523C123.56 224.375 124.09 224.928 124.09 226.034V234.327C124.09 235.433 123.56 235.986 122.523 235.986H79.2186C78.113 235.986 77.5601 235.433 77.5601 234.327V170.557C77.5601 169.52 78.113 168.99 79.2186 168.99H122.523C123.56 168.99 124.09 169.52 124.09 170.557V178.943Z" fill="#D2AE6D"/>
<path d="M144.711 235.986C143.605 235.986 143.052 235.433 143.052 234.327V170.557C143.052 169.52 143.605 168.99 144.711 168.99H154.938C156.044 168.99 156.597 169.52 156.597 170.557V223.822C156.597 224.19 156.781 224.375 157.15 224.375H187.924C188.96 224.375 189.49 224.928 189.49 226.034V234.327C189.49 235.433 188.96 235.986 187.924 235.986H144.711Z" fill="#D2AE6D"/>
<path d="M243.054 170.557C243.054 169.52 243.607 168.99 244.712 168.99H254.94C255.976 168.99 256.506 169.52 256.506 170.557V234.327C256.506 235.433 255.976 235.986 254.94 235.986H244.712C243.607 235.986 243.054 235.433 243.054 234.327V208.524C243.054 208.156 242.869 207.971 242.501 207.971H221.493C221.125 207.971 220.941 208.156 220.941 208.524V234.327C220.941 235.433 220.388 235.986 219.282 235.986H209.055C207.949 235.986 207.396 235.433 207.396 234.327V170.557C207.396 169.52 207.949 168.99 209.055 168.99H219.282C220.388 168.99 220.941 169.52 220.941 170.557V195.807C220.941 196.176 221.125 196.36 221.493 196.36H242.501C242.869 196.36 243.054 196.176 243.054 195.807V170.557Z" fill="#D2AE6D"/>
<path d="M300.965 237C295.99 237 291.59 235.986 287.789 233.959C283.966 231.931 281.017 229.075 278.944 225.389C276.848 221.702 275.811 217.509 275.811 212.763V192.213C275.811 187.49 276.848 183.32 278.944 179.68C281.017 176.063 283.966 173.229 287.789 171.202C291.59 169.174 295.99 168.161 300.965 168.161C305.987 168.161 310.409 169.174 314.233 171.202C318.034 173.229 320.982 176.063 323.078 179.68C325.151 183.32 326.211 187.49 326.211 192.213V212.763C326.211 217.509 325.151 221.748 323.078 225.481C320.982 229.167 318.034 232.024 314.233 234.051C310.409 236.009 305.987 237 300.965 237ZM300.965 225.481C304.466 225.481 307.277 224.375 309.442 222.163C311.653 219.905 312.759 216.91 312.759 213.224V192.121C312.759 188.435 311.676 185.463 309.534 183.182C307.369 180.924 304.512 179.772 300.965 179.772C297.464 179.772 294.631 180.924 292.488 183.182C290.323 185.463 289.264 188.435 289.264 192.121V213.224C289.264 216.91 290.323 219.905 292.488 222.163C294.631 224.375 297.464 225.481 300.965 225.481Z" fill="#D2AE6D"/>
<path d="M383.36 235.986C382.485 235.986 381.84 235.571 381.425 234.696L369.631 208.708C369.493 208.409 369.286 208.248 368.986 208.248H360.233C359.865 208.248 359.681 208.432 359.681 208.801V234.327C359.681 235.433 359.128 235.986 358.022 235.986H347.795C346.689 235.986 346.136 235.433 346.136 234.327V170.464C346.136 169.428 346.689 168.898 347.795 168.898H374.699C378.753 168.898 382.3 169.773 385.387 171.478C388.52 173.137 390.915 175.51 392.574 178.574C394.278 181.592 395.154 185.094 395.154 189.08C395.154 193.457 394.071 197.189 391.929 200.322C389.764 203.41 386.769 205.575 382.899 206.865C382.715 206.934 382.577 207.05 382.531 207.234C382.462 207.372 382.485 207.487 382.623 207.603L395.246 234.051C395.476 234.304 395.614 234.604 395.614 234.972C395.614 235.295 395.453 235.525 395.154 235.71C394.9 235.894 394.555 235.986 394.14 235.986H383.36ZM360.233 180.509C359.865 180.509 359.681 180.74 359.681 181.154V197.189C359.681 197.558 359.865 197.742 360.233 197.742H372.672C375.367 197.742 377.555 196.982 379.214 195.438C380.918 193.918 381.794 191.844 381.794 189.264C381.794 186.683 380.918 184.61 379.214 182.997C377.555 181.339 375.367 180.509 372.672 180.509H360.233Z" fill="#D2AE6D"/>
<path d="M486.347 235.986C485.426 235.986 484.804 235.525 484.504 234.604L481.832 225.757C481.763 225.458 481.579 225.296 481.28 225.296H457.784C457.462 225.296 457.278 225.458 457.232 225.757L454.56 234.604C454.237 235.525 453.638 235.986 452.717 235.986H441.66C441.038 235.986 440.601 235.848 440.37 235.525C440.117 235.157 440.094 234.696 440.278 234.143L460.641 170.28C461.009 169.428 461.608 168.99 462.483 168.99H476.581C477.433 168.99 478.055 169.428 478.423 170.28L498.786 234.143C498.832 234.281 498.878 234.466 498.878 234.696C498.878 235.134 498.74 235.479 498.509 235.71C498.256 235.894 497.887 235.986 497.404 235.986H486.347ZM460.549 214.146C460.479 214.583 460.664 214.791 461.101 214.791H478.055C478.423 214.791 478.562 214.583 478.515 214.146L469.854 184.933C469.785 184.702 469.67 184.564 469.486 184.564C469.348 184.564 469.233 184.702 469.117 184.933L460.549 214.146Z" fill="#D2AE6D"/>
<path d="M518.8 235.986C517.694 235.986 517.141 235.433 517.141 234.327V170.557C517.141 169.52 517.694 168.99 518.8 168.99H529.027C529.879 168.99 530.524 169.336 530.962 170.004L544.875 192.397C544.99 192.581 545.105 192.674 545.243 192.674C545.427 192.674 545.543 192.581 545.612 192.397L559.709 170.004C560.123 169.336 560.768 168.99 561.644 168.99H571.871C572.908 168.99 573.437 169.52 573.437 170.557V234.327C573.437 235.433 572.908 235.986 571.871 235.986H561.644C560.538 235.986 559.985 235.433 559.985 234.327V192.858C559.985 192.628 559.893 192.466 559.709 192.397C559.571 192.351 559.455 192.443 559.34 192.674L549.666 208.524C549.159 209.215 548.514 209.538 547.731 209.538H542.848C541.972 209.538 541.327 209.215 540.913 208.524L531.33 192.674C531.192 192.443 531.054 192.351 530.87 192.397C530.731 192.466 530.685 192.628 530.685 192.858V234.327C530.685 235.433 530.133 235.986 529.027 235.986H518.8Z" fill="#D2AE6D"/>
<path d="M596.36 235.986C595.254 235.986 594.701 235.433 594.701 234.327V170.557C594.701 169.52 595.254 168.99 596.36 168.99H606.587C607.693 168.99 608.246 169.52 608.246 170.557V234.327C608.246 235.433 607.693 235.986 606.587 235.986H596.36Z" fill="#D2AE6D"/>
<path d="M653.046 236.724C648.117 236.724 643.763 235.756 639.963 233.775C636.208 231.816 633.283 229.075 631.209 225.573C629.182 222.025 628.169 217.901 628.169 213.224V191.752C628.169 187.098 629.182 182.974 631.209 179.403C633.283 175.855 636.208 173.091 639.963 171.11C643.763 169.151 648.117 168.161 653.046 168.161C657.883 168.161 662.191 169.151 665.946 171.11C669.677 173.022 672.579 175.625 674.607 178.943C676.68 182.214 677.739 185.831 677.739 189.817V190.001C677.739 191.107 677.186 191.66 676.081 191.66H665.853C665.347 191.66 664.955 191.614 664.656 191.476C664.402 191.291 664.287 191.107 664.287 190.923V190.185C664.287 187.306 663.227 184.841 661.154 182.813C659.127 180.786 656.409 179.772 653.046 179.772C649.591 179.772 646.827 180.855 644.754 182.997C642.658 185.163 641.621 187.951 641.621 191.384V213.593C641.621 217.049 642.727 219.836 644.938 221.979C647.195 224.144 650.052 225.204 653.507 225.204C656.824 225.204 659.45 224.329 661.431 222.532C663.458 220.758 664.471 218.339 664.471 215.252V211.012C664.471 210.644 664.241 210.459 663.826 210.459H653.691C652.632 210.459 652.125 209.907 652.125 208.801V200.968C652.125 199.862 652.632 199.309 653.691 199.309H676.081C677.186 199.309 677.739 199.862 677.739 200.968V213.132C677.739 217.993 676.726 222.209 674.699 225.757C672.672 229.328 669.769 232.07 666.038 233.959C662.283 235.802 657.952 236.724 653.046 236.724Z" fill="#D2AE6D"/>
<path d="M740.274 235.986C739.353 235.986 738.731 235.525 738.432 234.604L735.76 225.757C735.691 225.458 735.506 225.296 735.207 225.296H711.712C711.389 225.296 711.205 225.458 711.159 225.757L708.487 234.604C708.164 235.525 707.565 235.986 706.644 235.986H695.588C694.966 235.986 694.528 235.848 694.298 235.525C694.044 235.157 694.021 234.696 694.205 234.143L714.568 170.28C714.936 169.428 715.535 168.99 716.411 168.99H730.508C731.36 168.99 731.982 169.428 732.351 170.28L752.713 234.143C752.759 234.281 752.805 234.466 752.805 234.696C752.805 235.134 752.667 235.479 752.437 235.71C752.183 235.894 751.815 235.986 751.331 235.986H740.274ZM714.476 214.146C714.407 214.583 714.591 214.791 715.029 214.791H731.982C732.351 214.791 732.489 214.583 732.443 214.146L723.782 184.933C723.713 184.702 723.597 184.564 723.413 184.564C723.275 184.564 723.16 184.702 723.045 184.933L714.476 214.146Z" fill="#D2AE6D"/>
<path d="M801.36 235.986C800.254 235.986 799.702 235.433 799.702 234.327V170.557C799.702 169.52 800.254 168.99 801.36 168.99H824.855C829.646 168.99 833.816 169.865 837.386 171.57C841.002 173.229 843.79 175.602 845.771 178.666C847.729 181.753 848.719 185.278 848.719 189.264V215.712C848.719 219.721 847.729 223.246 845.771 226.31C843.79 229.397 841.002 231.793 837.386 233.498C833.816 235.157 829.646 235.986 824.855 235.986H801.36ZM813.246 223.822C813.246 224.19 813.43 224.375 813.799 224.375H825.316C828.264 224.375 830.614 223.407 832.411 221.426C834.253 219.468 835.198 216.818 835.267 213.501V191.476C835.267 188.158 834.345 185.532 832.503 183.55C830.706 181.523 828.287 180.509 825.224 180.509H813.799C813.43 180.509 813.246 180.74 813.246 181.154V223.822Z" fill="#D2AE6D"/>
<path d="M892.313 237C887.338 237 882.938 235.986 879.137 233.959C875.314 231.931 872.365 229.075 870.292 225.389C868.196 221.702 867.159 217.509 867.159 212.763V192.213C867.159 187.49 868.196 183.32 870.292 179.68C872.365 176.063 875.314 173.229 879.137 171.202C882.938 169.174 887.338 168.161 892.313 168.161C897.335 168.161 901.757 169.174 905.581 171.202C909.382 173.229 912.33 176.063 914.426 179.68C916.499 183.32 917.559 187.49 917.559 192.213V212.763C917.559 217.509 916.499 221.748 914.426 225.481C912.33 229.167 909.382 232.024 905.581 234.051C901.757 236.009 897.335 237 892.313 237ZM892.313 225.481C895.814 225.481 898.625 224.375 900.79 222.163C903.001 219.905 904.107 216.91 904.107 213.224V192.121C904.107 188.435 903.024 185.463 900.882 183.182C898.717 180.924 895.86 179.772 892.313 179.772C888.812 179.772 885.979 180.924 883.836 183.182C881.671 185.463 880.612 188.435 880.612 192.121V213.224C880.612 216.91 881.671 219.905 883.836 222.163C885.979 224.375 888.812 225.481 892.313 225.481Z" fill="#D2AE6D"/>
<path d="M1009.33 235.986C1008.41 235.986 1007.79 235.525 1007.49 234.604L1004.82 225.757C1004.75 225.458 1004.56 225.296 1004.26 225.296H980.768C980.445 225.296 980.261 225.458 980.215 225.757L977.543 234.604C977.22 235.525 976.621 235.986 975.7 235.986H964.643C964.021 235.986 963.584 235.848 963.353 235.525C963.1 235.157 963.077 234.696 963.261 234.143L983.624 170.28C983.992 169.428 984.591 168.99 985.467 168.99H999.564C1000.42 168.99 1001.04 169.428 1001.41 170.28L1021.77 234.143C1021.82 234.281 1021.86 234.466 1021.86 234.696C1021.86 235.134 1021.72 235.479 1021.49 235.71C1021.24 235.894 1020.87 235.986 1020.39 235.986H1009.33ZM983.532 214.146C983.463 214.583 983.647 214.791 984.085 214.791H1001.04C1001.41 214.791 1001.54 214.583 1001.5 214.146L992.838 184.933C992.768 184.702 992.653 184.564 992.469 184.564C992.331 184.564 992.216 184.702 992.1 184.933L983.532 214.146Z" fill="#D2AE6D"/>
<path d="M1041.69 235.986C1040.59 235.986 1040.03 235.433 1040.03 234.327V170.557C1040.03 169.52 1040.59 168.99 1041.69 168.99H1065.19C1069.98 168.99 1074.15 169.865 1077.72 171.57C1081.33 173.229 1084.12 175.602 1086.1 178.666C1088.06 181.753 1089.05 185.278 1089.05 189.264V215.712C1089.05 219.721 1088.06 223.246 1086.1 226.31C1084.12 229.397 1081.33 231.793 1077.72 233.498C1074.15 235.157 1069.98 235.986 1065.19 235.986H1041.69ZM1053.58 223.822C1053.58 224.19 1053.76 224.375 1054.13 224.375H1065.65C1068.6 224.375 1070.94 223.407 1072.74 221.426C1074.58 219.468 1075.53 216.818 1075.6 213.501V191.476C1075.6 188.158 1074.68 185.532 1072.83 183.55C1071.04 181.523 1068.62 180.509 1065.55 180.509H1054.13C1053.76 180.509 1053.58 180.74 1053.58 181.154V223.822Z" fill="#D2AE6D"/>
<path d="M1127.12 235.986C1126.19 235.986 1125.57 235.525 1125.27 234.604L1105.83 170.741C1105.76 170.626 1105.74 170.441 1105.74 170.188C1105.74 169.405 1106.22 168.99 1107.21 168.99H1118.27C1119.19 168.99 1119.79 169.428 1120.11 170.28L1132.64 216.45C1132.69 216.703 1132.83 216.818 1133.01 216.818C1133.2 216.818 1133.31 216.703 1133.38 216.45L1145.73 170.372C1146.1 169.451 1146.7 168.99 1147.57 168.99H1158.44C1159 168.99 1159.39 169.174 1159.64 169.543C1159.87 169.865 1159.92 170.257 1159.73 170.741L1140.02 234.604C1139.69 235.525 1139.09 235.986 1138.17 235.986H1127.12Z" fill="#D2AE6D"/>
<path d="M1201.77 237C1196.8 237 1192.4 235.986 1188.6 233.959C1184.78 231.931 1181.83 229.075 1179.75 225.389C1177.66 221.702 1176.62 217.509 1176.62 212.763V192.213C1176.62 187.49 1177.66 183.32 1179.75 179.68C1181.83 176.063 1184.78 173.229 1188.6 171.202C1192.4 169.174 1196.8 168.161 1201.77 168.161C1206.8 168.161 1211.22 169.174 1215.04 171.202C1218.84 173.229 1221.79 176.063 1223.89 179.68C1225.96 183.32 1227.02 187.49 1227.02 192.213V212.763C1227.02 217.509 1225.96 221.748 1223.89 225.481C1221.79 229.167 1218.84 232.024 1215.04 234.051C1211.22 236.009 1206.8 237 1201.77 237ZM1201.77 225.481C1205.28 225.481 1208.09 224.375 1210.25 222.163C1212.46 219.905 1213.57 216.91 1213.57 213.224V192.121C1213.57 188.435 1212.49 185.463 1210.34 183.182C1208.18 180.924 1205.32 179.772 1201.77 179.772C1198.27 179.772 1195.44 180.924 1193.3 183.182C1191.13 185.463 1190.07 188.435 1190.07 192.121V213.224C1190.07 216.91 1191.13 219.905 1193.3 222.163C1195.44 224.375 1198.27 225.481 1201.77 225.481Z" fill="#D2AE6D"/>
<path d="M1270.53 236.724C1265.6 236.724 1261.25 235.756 1257.45 233.775C1253.7 231.816 1250.77 229.075 1248.7 225.573C1246.67 222.025 1245.66 217.901 1245.66 213.224V191.752C1245.66 187.098 1246.67 182.974 1248.7 179.403C1250.77 175.855 1253.7 173.091 1257.45 171.11C1261.25 169.151 1265.6 168.161 1270.53 168.161C1275.37 168.161 1279.68 169.151 1283.43 171.11C1287.16 173.022 1290.07 175.625 1292.09 178.943C1294.17 182.214 1295.23 185.831 1295.23 189.817V190.001C1295.23 191.107 1294.67 191.66 1293.57 191.66H1283.34C1282.83 191.66 1282.44 191.614 1282.14 191.476C1281.89 191.291 1281.77 191.107 1281.77 190.923V190.185C1281.77 187.306 1280.71 184.841 1278.64 182.813C1276.61 180.786 1273.9 179.772 1270.53 179.772C1267.08 179.772 1264.31 180.855 1262.24 182.997C1260.14 185.163 1259.11 187.951 1259.11 191.384V213.593C1259.11 217.049 1260.21 219.836 1262.43 221.979C1264.68 224.144 1267.54 225.204 1270.99 225.204C1274.31 225.204 1276.94 224.329 1278.92 222.532C1280.94 220.758 1281.96 218.339 1281.96 215.252V211.012C1281.96 210.644 1281.73 210.459 1281.31 210.459H1271.18C1270.12 210.459 1269.61 209.907 1269.61 208.801V200.968C1269.61 199.862 1270.12 199.309 1271.18 199.309H1293.57C1294.67 199.309 1295.23 199.862 1295.23 200.968V213.132C1295.23 217.993 1294.21 222.209 1292.19 225.757C1290.16 229.328 1287.26 232.07 1283.52 233.959C1279.77 235.802 1275.44 236.724 1270.53 236.724Z" fill="#D2AE6D"/>
<path d="M1357.76 235.986C1356.84 235.986 1356.22 235.525 1355.92 234.604L1353.25 225.757C1353.18 225.458 1352.99 225.296 1352.69 225.296H1329.2C1328.88 225.296 1328.69 225.458 1328.65 225.757L1325.97 234.604C1325.65 235.525 1325.05 235.986 1324.13 235.986H1313.07C1312.45 235.986 1312.02 235.848 1311.78 235.525C1311.53 235.157 1311.51 234.696 1311.69 234.143L1332.06 170.28C1332.42 169.428 1333.02 168.99 1333.9 168.99H1347.99C1348.85 168.99 1349.47 169.428 1349.84 170.28L1370.2 234.143C1370.25 234.281 1370.29 234.466 1370.29 234.696C1370.29 235.134 1370.15 235.479 1369.92 235.71C1369.67 235.894 1369.3 235.986 1368.82 235.986H1357.76ZM1331.96 214.146C1331.89 214.583 1332.08 214.791 1332.52 214.791H1349.47C1349.84 214.791 1349.98 214.583 1349.93 214.146L1341.27 184.933C1341.2 184.702 1341.08 184.564 1340.9 184.564C1340.76 184.564 1340.65 184.702 1340.53 184.933L1331.96 214.146Z" fill="#D2AE6D"/>
<path d="M1390.12 235.986C1389.02 235.986 1388.46 235.433 1388.46 234.327V170.557C1388.46 169.52 1389.02 168.99 1390.12 168.99H1413.62C1418.41 168.99 1422.58 169.865 1426.15 171.57C1429.76 173.229 1432.55 175.602 1434.53 178.666C1436.49 181.753 1437.48 185.278 1437.48 189.264V215.712C1437.48 219.721 1436.49 223.246 1434.53 226.31C1432.55 229.397 1429.76 231.793 1426.15 233.498C1422.58 235.157 1418.41 235.986 1413.62 235.986H1390.12ZM1402.01 223.822C1402.01 224.19 1402.19 224.375 1402.56 224.375H1414.08C1417.03 224.375 1419.38 223.407 1421.17 221.426C1423.01 219.468 1423.96 216.818 1424.03 213.501V191.476C1424.03 188.158 1423.11 185.532 1421.26 183.55C1419.47 181.523 1417.05 180.509 1413.99 180.509H1402.56C1402.19 180.509 1402.01 180.74 1402.01 181.154V223.822Z" fill="#D2AE6D"/>
<path d="M1481.07 237C1476.1 237 1471.7 235.986 1467.9 233.959C1464.08 231.931 1461.13 229.075 1459.05 225.389C1456.96 221.702 1455.92 217.509 1455.92 212.763V192.213C1455.92 187.49 1456.96 183.32 1459.05 179.68C1461.13 176.063 1464.08 173.229 1467.9 171.202C1471.7 169.174 1476.1 168.161 1481.07 168.161C1486.1 168.161 1490.52 169.174 1494.34 171.202C1498.14 173.229 1501.09 176.063 1503.19 179.68C1505.26 183.32 1506.32 187.49 1506.32 192.213V212.763C1506.32 217.509 1505.26 221.748 1503.19 225.481C1501.09 229.167 1498.14 232.024 1494.34 234.051C1490.52 236.009 1486.1 237 1481.07 237ZM1481.07 225.481C1484.58 225.481 1487.39 224.375 1489.55 222.163C1491.76 219.905 1492.87 216.91 1492.87 213.224V192.121C1492.87 188.435 1491.79 185.463 1489.64 183.182C1487.48 180.924 1484.62 179.772 1481.07 179.772C1477.57 179.772 1474.74 180.924 1472.6 183.182C1470.43 185.463 1469.37 188.435 1469.37 192.121V213.224C1469.37 216.91 1470.43 219.905 1472.6 222.163C1474.74 224.375 1477.57 225.481 1481.07 225.481Z" fill="#D2AE6D"/>
<path d="M111.715 98.2367V28.4757H100.475V123.395C107.961 120.331 111.715 111.945 111.715 98.2367ZM48.6009 21.0112H193.257V28.4757H175.936C170.039 28.4757 165.386 30.3649 162.023 34.0972C158.637 37.7833 156.955 42.345 156.955 47.736V100.264C156.955 106.485 155.757 111.829 153.362 116.299C150.966 120.792 146.958 124.777 141.384 128.279C130.327 135.029 111.37 138.416 84.5347 138.416C57.6765 138.416 33.352 134.154 11.5614 125.607V134.546H2.99259V88.7448H11.5614C12.9665 92.1315 15.7076 96.624 19.7617 102.199C23.8618 107.798 27.985 112.475 32.1082 116.207C36.2083 119.962 41.6445 123.349 48.4166 126.344C55.1657 129.362 61.8227 130.859 68.4105 130.859C81.9779 130.859 88.773 124.57 88.773 111.968V47.736C88.773 42.345 87.0454 37.7833 83.6133 34.0972C80.2272 30.3649 75.6203 28.4757 69.7926 28.4757H48.6009V21.0112Z" fill="white"/>
<path d="M313.671 37.0461H382.222V44.6028C374.045 44.6028 367.295 46.1694 361.951 49.3027C355.617 52.9428 352.461 60.799 352.461 72.8943V104.688C352.461 115.147 350.089 122.427 345.367 126.528C339.286 131.873 331.408 135.375 321.779 137.034C315.698 137.955 307.36 138.416 296.81 138.416C286.306 138.416 276.355 137.702 266.957 136.297C257.605 134.868 250.557 133.232 245.765 131.32C240.974 129.431 237.22 126.966 234.525 123.948C231.876 120.884 230.286 118.234 229.733 116.023C229.227 113.811 228.996 111.207 228.996 108.189V59.9005C228.996 49.7174 223.791 44.6028 213.425 44.6028H207.16V37.0461H306.208V44.6028H303.444C293.055 44.6028 287.873 49.7174 287.873 59.9005V109.94C287.873 117.267 289.162 122.658 291.742 126.16C294.368 129.661 298.676 131.412 304.642 131.412C318.831 131.412 328.551 129.431 333.849 125.422C339.193 121.368 341.865 115.838 341.865 108.835V72.8943C341.865 66.9503 340.852 61.9279 338.825 57.8731C336.844 53.7722 334.241 50.8463 330.993 49.1184C325.281 46.1234 319.499 44.6028 313.671 44.6028V37.0461ZM248.53 44.6028H239.961V103.582C239.961 110.954 241.827 116.276 245.581 119.524C246.364 120.216 247.355 120.792 248.53 121.275V44.6028Z" fill="white"/>
<path d="M623.826 126.989V134.546H535.097L505.244 96.3014C502.227 92.3157 499.716 90.3114 497.689 90.3114C495.708 90.3114 494.556 91.0025 494.188 92.3388C493.865 93.6981 493.727 96.3936 493.727 100.448V111.507C493.727 121.828 498.91 126.989 509.298 126.989H520.631V134.546H400.391V126.989H418.911C429.415 126.989 434.667 121.828 434.667 111.507V60.269C434.667 55.9838 433.123 52.2976 430.06 49.2105C426.973 46.1463 423.265 44.6027 418.911 44.6027H400.391V37.0461C490.065 36.9309 543.412 36.8618 560.435 36.8618C595.632 36.8618 613.23 46.0772 613.23 64.5081C613.23 69.7379 611.571 74.1383 608.255 77.6862C604.938 81.2572 600.239 83.9066 594.157 85.6115C583.884 88.4452 571.353 89.9428 556.565 90.1271V91.2329C559.007 93.3294 562.877 95.449 568.175 97.5916C573.519 99.7572 579.507 101.347 586.141 102.384L605.859 126.989H623.826ZM445.539 126.989H454.384V44.6027H445.539V126.989ZM493.727 51.6986V72.7099C493.727 75.175 496.077 77.2945 500.822 79.0685C505.613 80.8655 511.256 81.741 517.775 81.741C524.34 81.741 529.983 80.3587 534.728 77.594C539.52 74.7833 541.915 70.2217 541.915 63.9552C541.915 57.6887 539.266 52.8966 533.991 49.5791C528.693 46.2615 523.418 44.6027 518.144 44.6027H500.73C498.703 44.6027 496.998 45.3169 495.662 46.7223C494.372 48.0816 493.727 49.7403 493.727 51.6986ZM513.813 90.3114L542.468 126.989H553.432C540.902 110.724 531.411 98.4901 524.962 90.3114H513.813ZM562.37 76.0274C564.811 72.4104 566.055 68.632 566.055 64.6924C566.055 60.7067 564.811 56.9284 562.37 53.3574C559.905 49.7403 556.934 47.16 553.432 45.6164L552.787 46.1694C555.298 50.731 556.565 56.9054 556.565 64.6924C556.565 72.5025 555.298 78.6769 552.787 83.2155L553.432 83.6762C556.934 82.2018 559.905 79.6675 562.37 76.0274Z" fill="white"/>
<path d="M736.583 111.691C736.583 121.897 741.835 126.989 752.339 126.989H770.858V134.546H643.431V126.989H661.951C672.455 126.989 677.707 121.897 677.707 111.691V60.2691C677.707 56.0991 676.163 52.4359 673.1 49.3027C670.013 46.1694 666.305 44.6028 661.951 44.6028H643.431V37.0461H770.858V44.6028H752.339C747.962 44.6028 744.253 46.1694 741.19 49.3027C738.103 52.4359 736.583 56.0991 736.583 60.2691V111.691ZM697.424 44.6028H688.579V126.989H697.424V44.6028ZM668.954 25.5268H659.556V19.2603C672.271 19.2603 681.784 17.7628 688.118 14.7447C694.43 11.6806 700.004 6.77336 704.795 0H755.656C755.287 1.54359 754.389 3.54795 752.984 5.99004C751.555 8.38606 749.989 10.5517 748.284 12.4409C746.557 14.2839 744.046 16.1962 740.729 18.1544C737.458 20.0666 733.819 21.472 729.765 22.3935C720.666 24.4901 700.396 25.5268 668.954 25.5268ZM694.107 17.9701V18.7074C707.49 18.0392 717.096 13.4315 722.947 4.88419H711.798C710.37 7.83313 707.882 10.5056 704.335 12.9016C700.764 15.2516 697.355 16.9334 694.107 17.9701Z" fill="white"/>
<path d="M801.506 37.0461H915.389C939.944 37.0461 960.859 40.548 978.135 47.5518C986.98 51.0536 993.982 55.9378 999.142 62.2043C1004.3 68.4248 1006.88 75.6128 1006.88 83.7685C1006.88 91.8781 1004.99 99.0431 1001.26 105.24C997.576 111.392 992.969 116.276 987.441 119.893C981.912 123.533 975.486 126.436 968.184 128.648C955.699 132.587 942.592 134.546 928.841 134.546H801.506V126.989H819.842C830.276 126.989 835.505 121.828 835.505 111.507V60.0848C835.505 55.9148 833.962 52.2977 830.898 49.2105C827.812 46.1464 824.126 44.6028 819.842 44.6028H801.506V37.0461ZM855.131 127.173V44.6028H846.562V127.173H855.131ZM906.267 126.989H919.719C925.432 126.989 930.154 124.962 933.909 120.907C940.658 113.719 944.044 102.084 944.044 85.9802C944.044 58.403 933.125 44.6028 911.335 44.6028C906.106 44.6028 901.937 45.893 898.804 48.4733C895.717 51.0076 894.197 54.3482 894.197 58.5181V112.521C894.197 122.174 898.205 126.989 906.267 126.989ZM963.208 109.203C967.193 102.015 969.197 94.2741 969.197 85.9802C969.197 77.6863 967.193 69.9914 963.208 62.8494C959.269 55.6614 953.672 50.0399 946.439 45.9851L945.794 46.4459C954.018 57.3201 958.141 70.4982 958.141 85.9802C958.141 101.462 954.018 114.617 945.794 125.422L946.439 125.975C953.672 121.92 959.269 116.345 963.208 109.203Z" fill="white"/>
</svg>
