<svg width="299" height="212" viewBox="0 0 299 212" fill="none" xmlns="http://www.w3.org/2000/svg">
<path d="M240.207 171.463V184.786C240.207 186.222 240.59 187.274 241.356 187.939C242.13 188.609 243.151 188.942 244.418 188.942H249.065V190.6H216.294V188.942H220.997C222.259 188.942 223.275 188.609 224.041 187.939C224.806 187.274 225.189 186.222 225.189 184.786V171.463C225.189 170.31 224.774 169.312 223.949 168.474C223.134 167.635 222.15 167.216 220.997 167.216H216.294V165.576H249.065V167.216H244.418C243.26 167.216 242.271 167.635 241.447 168.474C240.617 169.312 240.207 170.31 240.207 171.463ZM230.274 188.942V167.216H227.777V188.942H230.274Z" fill="white"/>
<path d="M298.701 188.942V190.6H269.776V188.942H272.638C273.303 188.942 273.85 188.796 274.278 188.504C274.702 188.213 274.916 187.771 274.916 187.174C274.916 186.582 274.538 185.821 273.786 184.896L272.364 183.128H255.304C254.562 184.285 254.193 185.306 254.193 186.19C254.193 187.078 254.457 187.757 254.995 188.231C255.528 188.705 256.22 188.942 257.072 188.942H260.663V190.6H243.858V188.942C244.66 188.942 245.499 188.75 246.374 188.359C247.248 187.958 248.014 187.479 248.67 186.919C249.335 186.349 249.95 185.766 250.511 185.169C251.08 184.577 251.513 184.089 251.805 183.711C252.106 183.324 252.261 183.119 252.261 183.091L262.157 170.497L261.191 169.312C260.581 168.56 259.938 168.027 259.26 167.708C258.576 167.38 257.642 167.216 256.453 167.216H253.409V165.576H275.444L294.309 188.942H298.701ZM256.763 181.287H270.906L263.67 172.338L256.763 181.287ZM280.147 188.942H283.118L265.584 167.216H262.613L280.147 188.942Z" fill="white"/>
<path d="M0.328074 211.8C0.109358 211.8 0 211.69 0 211.471V198.859C0 198.654 0.109358 198.549 0.328074 198.549H2.35119C2.51979 198.549 2.64737 198.617 2.73395 198.749L5.48612 203.178C5.5089 203.215 5.53168 203.233 5.55902 203.233C5.59548 203.233 5.61826 203.215 5.63193 203.178L8.42055 198.749C8.50257 198.617 8.63016 198.549 8.80331 198.549H10.8264C11.0315 198.549 11.1363 198.654 11.1363 198.859V211.471C11.1363 211.69 11.0315 211.8 10.8264 211.8H8.80331C8.58459 211.8 8.47523 211.69 8.47523 211.471V203.27C8.47523 203.224 8.45701 203.192 8.42055 203.178C8.39321 203.169 8.37043 203.188 8.34765 203.233L6.43389 206.368C6.33364 206.505 6.20606 206.569 6.05113 206.569H5.08514C4.91199 206.569 4.7844 206.505 4.70239 206.368L2.80685 203.233C2.77951 203.188 2.75217 203.169 2.71572 203.178C2.68838 203.192 2.67927 203.224 2.67927 203.27V211.471C2.67927 211.69 2.56991 211.8 2.35119 211.8H0.328074Z" fill="#D2AE6D"/>
<path d="M24.5469 200.517C24.5469 200.727 24.4421 200.827 24.237 200.827H18.1312C18.0583 200.827 18.0219 200.873 18.0219 200.955V203.853C18.0219 203.926 18.0583 203.962 18.1312 203.962H22.0863C22.305 203.962 22.4144 204.072 22.4144 204.29V205.931C22.4144 206.149 22.305 206.259 22.0863 206.259H18.1312C18.0583 206.259 18.0219 206.295 18.0219 206.368V209.394C18.0219 209.467 18.0583 209.503 18.1312 209.503H24.237C24.4421 209.503 24.5469 209.612 24.5469 209.831V211.471C24.5469 211.69 24.4421 211.8 24.237 211.8H15.6707C15.4519 211.8 15.3426 211.69 15.3426 211.471V198.859C15.3426 198.654 15.4519 198.549 15.6707 198.549H24.237C24.4421 198.549 24.5469 198.654 24.5469 198.859V200.517Z" fill="#D2AE6D"/>
<path d="M28.626 211.8C28.4073 211.8 28.298 211.69 28.298 211.471V198.859C28.298 198.654 28.4073 198.549 28.626 198.549H30.6492C30.8679 198.549 30.9772 198.654 30.9772 198.859V209.394C30.9772 209.467 31.0137 209.503 31.0866 209.503H37.1742C37.3792 209.503 37.484 209.612 37.484 209.831V211.471C37.484 211.69 37.3792 211.8 37.1742 211.8H28.626Z" fill="#D2AE6D"/>
<path d="M48.0798 198.859C48.0798 198.654 48.1891 198.549 48.4078 198.549H50.431C50.636 198.549 50.7408 198.654 50.7408 198.859V211.471C50.7408 211.69 50.636 211.8 50.431 211.8H48.4078C48.1891 211.8 48.0798 211.69 48.0798 211.471V206.368C48.0798 206.295 48.0433 206.259 47.9704 206.259H43.8148C43.7419 206.259 43.7055 206.295 43.7055 206.368V211.471C43.7055 211.69 43.5961 211.8 43.3774 211.8H41.3543C41.1355 211.8 41.0262 211.69 41.0262 211.471V198.859C41.0262 198.654 41.1355 198.549 41.3543 198.549H43.3774C43.5961 198.549 43.7055 198.654 43.7055 198.859V203.853C43.7055 203.926 43.7419 203.962 43.8148 203.962H47.9704C48.0433 203.962 48.0798 203.926 48.0798 203.853V198.859Z" fill="#D2AE6D"/>
<path d="M59.5355 212C58.5513 212 57.681 211.8 56.9292 211.399C56.1728 210.998 55.5895 210.433 55.1794 209.703C54.7648 208.974 54.5598 208.145 54.5598 207.206V203.142C54.5598 202.208 54.7648 201.383 55.1794 200.663C55.5895 199.948 56.1728 199.387 56.9292 198.986C57.681 198.585 58.5513 198.385 59.5355 198.385C60.5289 198.385 61.4037 198.585 62.1601 198.986C62.912 199.387 63.4952 199.948 63.9099 200.663C64.3199 201.383 64.5295 202.208 64.5295 203.142V207.206C64.5295 208.145 64.3199 208.984 63.9099 209.722C63.4952 210.451 62.912 211.016 62.1601 211.417C61.4037 211.804 60.5289 212 59.5355 212ZM59.5355 209.722C60.2281 209.722 60.784 209.503 61.2124 209.066C61.6498 208.619 61.8685 208.027 61.8685 207.298V203.124C61.8685 202.395 61.6543 201.807 61.2306 201.356C60.8023 200.909 60.2372 200.681 59.5355 200.681C58.8429 200.681 58.2825 200.909 57.8587 201.356C57.4304 201.807 57.2208 202.395 57.2208 203.124V207.298C57.2208 208.027 57.4304 208.619 57.8587 209.066C58.2825 209.503 58.8429 209.722 59.5355 209.722Z" fill="#D2AE6D"/>
<path d="M75.8345 211.799C75.6613 211.799 75.5338 211.717 75.4517 211.544L73.1188 206.404C73.0914 206.345 73.0504 206.313 72.9912 206.313H71.2597C71.1868 206.313 71.1503 206.35 71.1503 206.423V211.471C71.1503 211.69 71.041 211.799 70.8223 211.799H68.7991C68.5804 211.799 68.4711 211.69 68.4711 211.471V198.841C68.4711 198.636 68.5804 198.531 68.7991 198.531H74.1212C74.9232 198.531 75.6249 198.704 76.2355 199.041C76.8552 199.369 77.3291 199.838 77.6571 200.444C77.9943 201.041 78.1675 201.734 78.1675 202.522C78.1675 203.388 77.9533 204.126 77.5295 204.746C77.1012 205.356 76.5089 205.785 75.7434 206.04C75.7069 206.054 75.6796 206.076 75.6705 206.113C75.6568 206.14 75.6613 206.163 75.6887 206.186L78.1857 211.417C78.2313 211.467 78.2586 211.526 78.2586 211.599C78.2586 211.663 78.2267 211.708 78.1675 211.745C78.1173 211.781 78.049 211.799 77.967 211.799H75.8345ZM71.2597 200.827C71.1868 200.827 71.1503 200.873 71.1503 200.955V204.126C71.1503 204.199 71.1868 204.236 71.2597 204.236H73.7202C74.2534 204.236 74.6862 204.085 75.0143 203.78C75.3515 203.479 75.5247 203.069 75.5247 202.559C75.5247 202.048 75.3515 201.638 75.0143 201.319C74.6862 200.991 74.2534 200.827 73.7202 200.827H71.2597Z" fill="#D2AE6D"/>
<path d="M96.207 211.8C96.0247 211.8 95.9017 211.708 95.8424 211.526L95.3139 209.776C95.3002 209.717 95.2637 209.685 95.2045 209.685H90.5568C90.493 209.685 90.4566 209.717 90.4474 209.776L89.9189 211.526C89.8551 211.708 89.7366 211.8 89.5544 211.8H87.3672C87.2442 211.8 87.1576 211.772 87.112 211.708C87.0619 211.635 87.0573 211.544 87.0938 211.435L91.1218 198.804C91.1947 198.636 91.3132 198.549 91.4863 198.549H94.275C94.4436 198.549 94.5666 198.636 94.6395 198.804L98.6675 211.435C98.6766 211.462 98.6857 211.499 98.6857 211.544C98.6857 211.631 98.6584 211.699 98.6128 211.745C98.5627 211.781 98.4898 211.8 98.3941 211.8H96.207ZM91.1036 207.48C91.0899 207.566 91.1264 207.607 91.2129 207.607H94.5666C94.6395 207.607 94.6668 207.566 94.6577 207.48L92.9444 201.702C92.9308 201.657 92.908 201.629 92.8715 201.629C92.8442 201.629 92.8214 201.657 92.7986 201.702L91.1036 207.48Z" fill="#D2AE6D"/>
<path d="M102.627 211.8C102.408 211.8 102.298 211.69 102.298 211.471V198.859C102.298 198.654 102.408 198.549 102.627 198.549H104.65C104.818 198.549 104.946 198.617 105.032 198.749L107.785 203.178C107.807 203.215 107.83 203.233 107.857 203.233C107.894 203.233 107.917 203.215 107.93 203.178L110.719 198.749C110.801 198.617 110.929 198.549 111.102 198.549H113.125C113.33 198.549 113.435 198.654 113.435 198.859V211.471C113.435 211.69 113.33 211.8 113.125 211.8H111.102C110.883 211.8 110.774 211.69 110.774 211.471V203.27C110.774 203.224 110.755 203.192 110.719 203.178C110.692 203.169 110.669 203.188 110.646 203.233L108.732 206.368C108.632 206.505 108.505 206.569 108.35 206.569H107.384C107.21 206.569 107.083 206.505 107.001 206.368L105.105 203.233C105.078 203.188 105.051 203.169 105.014 203.178C104.987 203.192 104.978 203.224 104.978 203.27V211.471C104.978 211.69 104.868 211.8 104.65 211.8H102.627Z" fill="#D2AE6D"/>
<path d="M117.969 211.8C117.75 211.8 117.641 211.69 117.641 211.471V198.859C117.641 198.654 117.75 198.549 117.969 198.549H119.992C120.211 198.549 120.32 198.654 120.32 198.859V211.471C120.32 211.69 120.211 211.8 119.992 211.8H117.969Z" fill="#D2AE6D"/>
<path d="M129.183 211.945C128.207 211.945 127.346 211.754 126.594 211.362C125.852 210.975 125.273 210.433 124.863 209.74C124.462 209.038 124.261 208.223 124.261 207.298V203.051C124.261 202.13 124.462 201.315 124.863 200.609C125.273 199.907 125.852 199.36 126.594 198.968C127.346 198.581 128.207 198.385 129.183 198.385C130.139 198.385 130.992 198.581 131.734 198.968C132.472 199.346 133.047 199.861 133.448 200.517C133.858 201.164 134.067 201.88 134.067 202.668V202.705C134.067 202.923 133.958 203.033 133.739 203.033H131.716C131.616 203.033 131.538 203.024 131.479 202.996C131.429 202.96 131.406 202.923 131.406 202.887V202.741C131.406 202.171 131.197 201.684 130.786 201.283C130.386 200.882 129.848 200.681 129.183 200.681C128.499 200.681 127.952 200.896 127.542 201.319C127.128 201.748 126.923 202.299 126.923 202.978V207.371C126.923 208.054 127.141 208.605 127.579 209.029C128.025 209.457 128.59 209.667 129.274 209.667C129.93 209.667 130.449 209.494 130.841 209.138C131.242 208.788 131.443 208.309 131.443 207.699V206.86C131.443 206.787 131.397 206.751 131.315 206.751H129.31C129.101 206.751 129 206.641 129 206.423V204.874C129 204.655 129.101 204.545 129.31 204.545H133.739C133.958 204.545 134.067 204.655 134.067 204.874V207.279C134.067 208.241 133.867 209.075 133.466 209.776C133.065 210.483 132.491 211.025 131.752 211.399C131.01 211.763 130.153 211.945 129.183 211.945Z" fill="#D2AE6D"/>
<path d="M146.438 211.8C146.255 211.8 146.132 211.708 146.073 211.526L145.545 209.776C145.531 209.717 145.494 209.685 145.435 209.685H140.788C140.724 209.685 140.687 209.717 140.678 209.776L140.15 211.526C140.086 211.708 139.967 211.8 139.785 211.8H137.598C137.475 211.8 137.388 211.772 137.343 211.708C137.293 211.635 137.288 211.544 137.325 211.435L141.353 198.804C141.425 198.636 141.544 198.549 141.717 198.549H144.506C144.674 198.549 144.797 198.636 144.87 198.804L148.898 211.435C148.907 211.462 148.916 211.499 148.916 211.544C148.916 211.631 148.889 211.699 148.844 211.745C148.793 211.781 148.721 211.8 148.625 211.8H146.438ZM141.334 207.48C141.321 207.566 141.357 207.607 141.444 207.607H144.797C144.87 207.607 144.898 207.566 144.888 207.48L143.175 201.702C143.161 201.657 143.139 201.629 143.102 201.629C143.075 201.629 143.052 201.657 143.029 201.702L141.334 207.48Z" fill="#D2AE6D"/>
<path d="M158.521 211.8C158.303 211.8 158.193 211.69 158.193 211.471V198.859C158.193 198.654 158.303 198.549 158.521 198.549H163.169C164.117 198.549 164.942 198.722 165.648 199.059C166.363 199.387 166.915 199.857 167.306 200.463C167.694 201.073 167.89 201.77 167.89 202.559V207.79C167.89 208.583 167.694 209.28 167.306 209.886C166.915 210.496 166.363 210.97 165.648 211.307C164.942 211.635 164.117 211.8 163.169 211.8H158.521ZM160.873 209.394C160.873 209.467 160.909 209.503 160.982 209.503H163.26C163.843 209.503 164.308 209.312 164.664 208.92C165.028 208.532 165.215 208.008 165.229 207.352V202.996C165.229 202.34 165.046 201.821 164.682 201.429C164.326 201.028 163.848 200.827 163.242 200.827H160.982C160.909 200.827 160.873 200.873 160.873 200.955V209.394Z" fill="#D2AE6D"/>
<path d="M176.513 212C175.529 212 174.659 211.8 173.907 211.399C173.151 210.998 172.567 210.433 172.157 209.703C171.743 208.974 171.537 208.145 171.537 207.206V203.142C171.537 202.208 171.743 201.383 172.157 200.663C172.567 199.948 173.151 199.387 173.907 198.986C174.659 198.585 175.529 198.385 176.513 198.385C177.507 198.385 178.381 198.585 179.138 198.986C179.89 199.387 180.473 199.948 180.888 200.663C181.298 201.383 181.507 202.208 181.507 203.142V207.206C181.507 208.145 181.298 208.984 180.888 209.722C180.473 210.451 179.89 211.016 179.138 211.417C178.381 211.804 177.507 212 176.513 212ZM176.513 209.722C177.206 209.722 177.762 209.503 178.19 209.066C178.628 208.619 178.846 208.027 178.846 207.298V203.124C178.846 202.395 178.632 201.807 178.208 201.356C177.78 200.909 177.215 200.681 176.513 200.681C175.821 200.681 175.26 200.909 174.836 201.356C174.408 201.807 174.199 202.395 174.199 203.124V207.298C174.199 208.027 174.408 208.619 174.836 209.066C175.26 209.503 175.821 209.722 176.513 209.722Z" fill="#D2AE6D"/>
<path d="M199.661 211.8C199.479 211.8 199.356 211.708 199.297 211.526L198.768 209.776C198.754 209.717 198.718 209.685 198.659 209.685H194.011C193.947 209.685 193.911 209.717 193.902 209.776L193.373 211.526C193.309 211.708 193.191 211.8 193.008 211.8H190.821C190.698 211.8 190.612 211.772 190.566 211.708C190.516 211.635 190.511 211.544 190.548 211.435L194.576 198.804C194.649 198.636 194.767 198.549 194.94 198.549H197.729C197.898 198.549 198.021 198.636 198.094 198.804L202.122 211.435C202.131 211.462 202.14 211.499 202.14 211.544C202.14 211.631 202.112 211.699 202.067 211.745C202.017 211.781 201.944 211.8 201.848 211.8H199.661ZM194.558 207.48C194.544 207.566 194.58 207.607 194.667 207.607H198.021C198.094 207.607 198.121 207.566 198.112 207.48L196.399 201.702C196.385 201.657 196.362 201.629 196.326 201.629C196.298 201.629 196.276 201.657 196.253 201.702L194.558 207.48Z" fill="#D2AE6D"/>
<path d="M206.063 211.8C205.844 211.8 205.734 211.69 205.734 211.471V198.859C205.734 198.654 205.844 198.549 206.063 198.549H210.71C211.658 198.549 212.483 198.722 213.189 199.059C213.904 199.387 214.456 199.857 214.848 200.463C215.235 201.073 215.431 201.77 215.431 202.559V207.79C215.431 208.583 215.235 209.28 214.848 209.886C214.456 210.496 213.904 210.97 213.189 211.307C212.483 211.635 211.658 211.8 210.71 211.8H206.063ZM208.414 209.394C208.414 209.467 208.45 209.503 208.523 209.503H210.801C211.385 209.503 211.849 209.312 212.205 208.92C212.569 208.532 212.756 208.008 212.77 207.352V202.996C212.77 202.34 212.588 201.821 212.223 201.429C211.868 201.028 211.389 200.827 210.783 200.827H208.523C208.45 200.827 208.414 200.873 208.414 200.955V209.394Z" fill="#D2AE6D"/>
<path d="M222.961 211.8C222.779 211.8 222.656 211.708 222.596 211.526L218.751 198.895C218.737 198.872 218.732 198.836 218.732 198.786C218.732 198.631 218.828 198.549 219.024 198.549H221.211C221.393 198.549 221.512 198.636 221.576 198.804L224.054 207.936C224.064 207.986 224.091 208.008 224.127 208.008C224.164 208.008 224.187 207.986 224.2 207.936L226.643 198.822C226.715 198.64 226.834 198.549 227.007 198.549H229.158C229.267 198.549 229.345 198.585 229.395 198.658C229.44 198.722 229.449 198.8 229.413 198.895L225.513 211.526C225.449 211.708 225.33 211.8 225.148 211.8H222.961Z" fill="#D2AE6D"/>
<path d="M237.73 212C236.745 212 235.875 211.8 235.123 211.399C234.367 210.998 233.784 210.433 233.373 209.703C232.959 208.974 232.754 208.145 232.754 207.206V203.142C232.754 202.208 232.959 201.383 233.373 200.663C233.784 199.948 234.367 199.387 235.123 198.986C235.875 198.585 236.745 198.385 237.73 198.385C238.723 198.385 239.598 198.585 240.354 198.986C241.106 199.387 241.689 199.948 242.104 200.663C242.514 201.383 242.724 202.208 242.724 203.142V207.206C242.724 208.145 242.514 208.984 242.104 209.722C241.689 210.451 241.106 211.016 240.354 211.417C239.598 211.804 238.723 212 237.73 212ZM237.73 209.722C238.422 209.722 238.978 209.503 239.406 209.066C239.844 208.619 240.063 208.027 240.063 207.298V203.124C240.063 202.395 239.848 201.807 239.425 201.356C238.996 200.909 238.431 200.681 237.73 200.681C237.037 200.681 236.476 200.909 236.053 201.356C235.624 201.807 235.415 202.395 235.415 203.124V207.298C235.415 208.027 235.624 208.619 236.053 209.066C236.476 209.503 237.037 209.722 237.73 209.722Z" fill="#D2AE6D"/>
<path d="M251.331 211.945C250.356 211.945 249.495 211.754 248.743 211.362C248 210.975 247.421 210.433 247.011 209.74C246.61 209.038 246.41 208.223 246.41 207.298V203.051C246.41 202.13 246.61 201.315 247.011 200.609C247.421 199.907 248 199.36 248.743 198.968C249.495 198.581 250.356 198.385 251.331 198.385C252.288 198.385 253.14 198.581 253.883 198.968C254.621 199.346 255.195 199.861 255.596 200.517C256.006 201.164 256.216 201.88 256.216 202.668V202.705C256.216 202.923 256.106 203.033 255.888 203.033H253.864C253.764 203.033 253.687 203.024 253.628 202.996C253.577 202.96 253.555 202.923 253.555 202.887V202.741C253.555 202.171 253.345 201.684 252.935 201.283C252.534 200.882 251.996 200.681 251.331 200.681C250.648 200.681 250.101 200.896 249.691 201.319C249.276 201.748 249.071 202.299 249.071 202.978V207.371C249.071 208.054 249.29 208.605 249.727 209.029C250.174 209.457 250.739 209.667 251.422 209.667C252.078 209.667 252.598 209.494 252.99 209.138C253.391 208.788 253.591 208.309 253.591 207.699V206.86C253.591 206.787 253.546 206.751 253.463 206.751H251.459C251.249 206.751 251.149 206.641 251.149 206.423V204.874C251.149 204.655 251.249 204.545 251.459 204.545H255.888C256.106 204.545 256.216 204.655 256.216 204.874V207.279C256.216 208.241 256.015 209.075 255.614 209.776C255.213 210.483 254.639 211.025 253.901 211.399C253.158 211.763 252.302 211.945 251.331 211.945Z" fill="#D2AE6D"/>
<path d="M268.586 211.8C268.404 211.8 268.281 211.708 268.222 211.526L267.693 209.776C267.679 209.717 267.643 209.685 267.584 209.685H262.936C262.872 209.685 262.836 209.717 262.827 209.776L262.298 211.526C262.234 211.708 262.116 211.8 261.934 211.8H259.746C259.623 211.8 259.537 211.772 259.491 211.708C259.441 211.635 259.436 211.544 259.473 211.435L263.501 198.804C263.574 198.636 263.692 198.549 263.865 198.549H266.654C266.823 198.549 266.946 198.636 267.019 198.804L271.047 211.435C271.056 211.462 271.065 211.499 271.065 211.544C271.065 211.631 271.038 211.699 270.992 211.745C270.942 211.781 270.869 211.8 270.773 211.8H268.586ZM263.483 207.48C263.469 207.566 263.506 207.607 263.592 207.607H266.946C267.019 207.607 267.046 207.566 267.037 207.48L265.324 201.702C265.31 201.657 265.287 201.629 265.251 201.629C265.223 201.629 265.201 201.657 265.178 201.702L263.483 207.48Z" fill="#D2AE6D"/>
<path d="M274.987 211.8C274.769 211.8 274.659 211.69 274.659 211.471V198.859C274.659 198.654 274.769 198.549 274.987 198.549H279.635C280.583 198.549 281.408 198.722 282.114 199.059C282.829 199.387 283.381 199.857 283.773 200.463C284.16 201.073 284.356 201.77 284.356 202.559V207.79C284.356 208.583 284.16 209.28 283.773 209.886C283.381 210.496 282.829 210.97 282.114 211.307C281.408 211.635 280.583 211.8 279.635 211.8H274.987ZM277.339 209.394C277.339 209.467 277.375 209.503 277.448 209.503H279.726C280.31 209.503 280.774 209.312 281.13 208.92C281.494 208.532 281.681 208.008 281.695 207.352V202.996C281.695 202.34 281.512 201.821 281.148 201.429C280.793 201.028 280.314 200.827 279.708 200.827H277.448C277.375 200.827 277.339 200.873 277.339 200.955V209.394Z" fill="#D2AE6D"/>
<path d="M292.979 212C291.995 212 291.125 211.8 290.373 211.399C289.617 210.998 289.033 210.433 288.623 209.703C288.209 208.974 288.004 208.145 288.004 207.206V203.142C288.004 202.208 288.209 201.383 288.623 200.663C289.033 199.948 289.617 199.387 290.373 198.986C291.125 198.585 291.995 198.385 292.979 198.385C293.973 198.385 294.848 198.585 295.604 198.986C296.356 199.387 296.939 199.948 297.354 200.663C297.764 201.383 297.973 202.208 297.973 203.142V207.206C297.973 208.145 297.764 208.984 297.354 209.722C296.939 210.451 296.356 211.016 295.604 211.417C294.848 211.804 293.973 212 292.979 212ZM292.979 209.722C293.672 209.722 294.228 209.503 294.656 209.066C295.094 208.619 295.312 208.027 295.312 207.298V203.124C295.312 202.395 295.098 201.807 294.674 201.356C294.246 200.909 293.681 200.681 292.979 200.681C292.287 200.681 291.726 200.909 291.303 201.356C290.874 201.807 290.665 202.395 290.665 203.124V207.298C290.665 208.027 290.874 208.619 291.303 209.066C291.726 209.503 292.287 209.722 292.979 209.722Z" fill="#D2AE6D"/>
<path d="M22.099 184.555V170.758H19.8754V189.531C21.3563 188.925 22.099 187.267 22.099 184.555ZM9.614 169.282H38.2293V170.758H34.8028C33.6363 170.758 32.7158 171.132 32.0506 171.87C31.3808 172.599 31.0481 173.501 31.0481 174.567V184.956C31.0481 186.187 30.8112 187.244 30.3373 188.128C29.8634 189.016 29.0706 189.805 27.9679 190.497C25.7807 191.832 22.0307 192.502 16.7223 192.502C11.4093 192.502 6.59755 191.659 2.28703 189.969V191.737H0.59198V182.678H2.28703C2.56498 183.348 3.10721 184.236 3.90917 185.339C4.72024 186.446 5.53587 187.371 6.35149 188.11C7.16256 188.852 8.23792 189.522 9.57755 190.114C10.9126 190.711 12.2295 191.008 13.5327 191.008C16.2165 191.008 17.5607 189.764 17.5607 187.271V174.567C17.5607 173.501 17.2189 172.599 16.54 171.87C15.8702 171.132 14.9589 170.758 13.8061 170.758H9.614V169.282Z" fill="white"/>
<path d="M62.049 172.453H75.6094V173.948C73.9918 173.948 72.6567 174.258 71.5996 174.877C70.3465 175.597 69.7223 177.151 69.7223 179.543V185.831C69.7223 187.9 69.2529 189.34 68.3188 190.151C67.1159 191.208 65.5575 191.901 63.6529 192.229C62.45 192.411 60.8005 192.502 58.7136 192.502C56.6358 192.502 54.6673 192.361 52.8082 192.083C50.9583 191.8 49.564 191.477 48.6162 191.099C47.6684 190.725 46.9257 190.237 46.3926 189.641C45.8686 189.035 45.5542 188.511 45.4448 188.073C45.3446 187.636 45.299 187.121 45.299 186.524V176.973C45.299 174.959 44.2692 173.948 42.2188 173.948H40.9794V172.453H60.5727V173.948H60.0259C57.9708 173.948 56.9456 174.959 56.9456 176.973V186.87C56.9456 188.319 57.2008 189.385 57.7111 190.078C58.2306 190.771 59.0827 191.117 60.2628 191.117C63.0697 191.117 64.9925 190.725 66.0405 189.932C67.0977 189.13 67.6262 188.037 67.6262 186.651V179.543C67.6262 178.368 67.4257 177.374 67.0248 176.572C66.6329 175.761 66.118 175.183 65.4755 174.841C64.3455 174.248 63.2018 173.948 62.049 173.948V172.453ZM49.163 173.948H47.4679V185.613C47.4679 187.071 47.837 188.123 48.5797 188.766C48.7347 188.902 48.9306 189.016 49.163 189.112V173.948Z" fill="white"/>
<path d="M123.402 190.242V191.737H105.85L99.9451 184.173C99.3482 183.384 98.8515 182.988 98.4505 182.988C98.0587 182.988 97.8308 183.125 97.7579 183.389C97.6941 183.658 97.6668 184.191 97.6668 184.993V187.18C97.6668 189.221 98.692 190.242 100.747 190.242H102.989V191.737H79.2036V190.242H82.867C84.9448 190.242 85.9837 189.221 85.9837 187.18V177.046C85.9837 176.199 85.6784 175.47 85.0724 174.859C84.4618 174.253 83.7282 173.948 82.867 173.948H79.2036V172.453C96.9423 172.43 107.495 172.417 110.863 172.417C117.825 172.417 121.306 174.239 121.306 177.885C121.306 178.919 120.978 179.789 120.322 180.491C119.666 181.197 118.736 181.721 117.533 182.058C115.501 182.619 113.022 182.915 110.097 182.951V183.17C110.58 183.585 111.346 184.004 112.394 184.428C113.451 184.856 114.635 185.171 115.948 185.376L119.848 190.242H123.402ZM88.1344 190.242H89.8842V173.948H88.1344V190.242ZM97.6668 175.351V179.507C97.6668 179.994 98.1316 180.413 99.0702 180.764C100.018 181.12 101.134 181.293 102.424 181.293C103.722 181.293 104.839 181.02 105.778 180.473C106.725 179.917 107.199 179.015 107.199 177.775C107.199 176.536 106.675 175.588 105.632 174.932C104.584 174.276 103.54 173.948 102.497 173.948H99.052C98.651 173.948 98.3138 174.089 98.0496 174.367C97.7944 174.636 97.6668 174.964 97.6668 175.351ZM101.64 182.988L107.309 190.242H109.477C106.999 187.025 105.121 184.606 103.846 182.988H101.64ZM111.245 180.163C111.728 179.447 111.974 178.7 111.974 177.921C111.974 177.133 111.728 176.385 111.245 175.679C110.758 174.964 110.17 174.453 109.477 174.148L109.35 174.258C109.847 175.16 110.097 176.381 110.097 177.921C110.097 179.466 109.847 180.687 109.35 181.585L109.477 181.676C110.17 181.384 110.758 180.883 111.245 180.163Z" fill="white"/>
<path d="M145.707 187.216C145.707 189.235 146.746 190.242 148.824 190.242H152.488V191.737H127.281V190.242H130.944C133.022 190.242 134.061 189.235 134.061 187.216V177.046C134.061 176.221 133.756 175.497 133.15 174.877C132.539 174.258 131.805 173.948 130.944 173.948H127.281V172.453H152.488V173.948H148.824C147.958 173.948 147.225 174.258 146.619 174.877C146.008 175.497 145.707 176.221 145.707 177.046V187.216ZM137.961 173.948H136.212V190.242H137.961V173.948ZM132.329 170.175H130.47V168.935C132.985 168.935 134.867 168.639 136.12 168.042C137.369 167.436 138.472 166.466 139.419 165.126H149.48C149.407 165.431 149.23 165.828 148.952 166.311C148.669 166.785 148.359 167.213 148.022 167.587C147.68 167.951 147.184 168.329 146.528 168.717C145.881 169.095 145.161 169.373 144.359 169.555C142.559 169.97 138.549 170.175 132.329 170.175ZM137.305 168.68V168.826C139.952 168.694 141.853 167.783 143.01 166.092H140.805C140.522 166.675 140.03 167.204 139.328 167.678C138.622 168.143 137.948 168.475 137.305 168.68Z" fill="white"/>
<path d="M158.55 172.453H181.078C185.935 172.453 190.073 173.146 193.49 174.531C195.24 175.224 196.625 176.19 197.646 177.429C198.666 178.659 199.177 180.081 199.177 181.694C199.177 183.298 198.803 184.715 198.065 185.941C197.336 187.157 196.425 188.123 195.331 188.839C194.237 189.559 192.966 190.133 191.522 190.57C189.052 191.349 186.459 191.737 183.739 191.737H158.55V190.242H162.177C164.241 190.242 165.276 189.221 165.276 187.18V177.01C165.276 176.185 164.97 175.47 164.364 174.859C163.754 174.253 163.025 173.948 162.177 173.948H158.55V172.453ZM169.158 190.278V173.948H167.463V190.278H169.158ZM179.274 190.242H181.935C183.065 190.242 183.999 189.841 184.741 189.039C186.077 187.617 186.746 185.316 186.746 182.131C186.746 176.677 184.587 173.948 180.276 173.948C179.242 173.948 178.417 174.203 177.797 174.713C177.187 175.214 176.886 175.875 176.886 176.7V187.381C176.886 189.29 177.679 190.242 179.274 190.242ZM190.537 186.724C191.326 185.303 191.722 183.772 191.722 182.131C191.722 180.491 191.326 178.969 190.537 177.557C189.758 176.135 188.651 175.023 187.22 174.221L187.093 174.312C188.719 176.463 189.535 179.069 189.535 182.131C189.535 185.193 188.719 187.795 187.093 189.932L187.22 190.042C188.651 189.24 189.758 188.137 190.537 186.724Z" fill="white"/>
<mask id="mask0_2_533" style="mask-type:luminance" maskUnits="userSpaceOnUse" x="88" y="30" width="121" height="125">
<path d="M88.8682 30.8572H208.724V154.833H88.8682V30.8572Z" fill="white"/>
</mask>
<g mask="url(#mask0_2_533)">
<path fill-rule="evenodd" clip-rule="evenodd" d="M148.796 30.9574C166.845 34.0012 186.825 41.8841 208.729 54.606C200.194 105.731 180.218 139.144 148.796 154.832C117.379 139.144 97.4027 105.731 88.8682 54.606C110.772 41.8841 130.748 34.0012 148.796 30.9574Z" fill="#282A3B"/>
</g>
<path fill-rule="evenodd" clip-rule="evenodd" d="M206.464 55.6768C197.944 105.166 178.587 137.203 148.796 152.527C119.01 137.203 99.6536 105.166 91.1328 55.6768C112.275 43.5335 131.49 36.0197 148.796 33.0488C166.107 36.0197 185.322 43.5335 206.464 55.6768Z" fill="#AB8E63"/>
<path fill-rule="evenodd" clip-rule="evenodd" d="M148.796 149.037C121.416 134.273 103.016 104.245 94.5457 57.2853C114.517 46.0123 132.589 39.0453 148.796 36.1838C165.004 39.0453 183.08 46.0123 203.051 57.2853C194.581 104.245 176.181 134.273 148.796 149.037Z" fill="#282A3B"/>
<path d="M130.265 60.361L130.301 60.4065L130.278 60.7893C129.385 77.0517 105.09 78.2911 103.814 60.3245L103.796 60.0739L103.896 59.8415C104.215 59.0988 104.611 58.4199 105.076 57.8093L108.512 49.9538C110.043 49.211 111.56 48.5002 113.064 47.8122L110.466 54.1321C112.298 53.5398 114.308 53.3165 116.335 53.4168L116.946 46.0943C118.14 45.5794 119.32 45.0873 120.495 44.6089L120.245 53.7312L124.514 54.0911L122.049 43.9892C123.63 43.3604 125.198 42.768 126.752 42.2076L141.611 49.3204C142.112 49.1153 142.608 48.9331 143.101 48.769L143.461 37.2591C144.828 36.9493 146.181 36.6713 147.525 36.4162L154.064 49.366L154.255 49.4571L154.925 48.9878L151.507 36.6987C155.991 37.6009 160.607 38.8129 165.369 40.3394L165.92 41.2006L166.585 40.7312C167.993 41.196 169.415 41.6881 170.85 42.2076L168.754 45.6387C170.549 48.4638 172.044 50.8514 173.242 52.7971L175.858 52.4644L177.89 44.9324C178.897 45.3471 179.913 45.7754 180.934 46.2174L179.17 53.4532L178.25 52.4189L178.665 54.0638L179.161 53.4988L178.318 56.9663C179.945 56.0824 181.713 55.4353 183.517 55.0343L183.135 47.1834C184.461 47.7757 185.796 48.3909 187.14 49.0242L187.769 54.5513C189.473 54.5468 191.15 54.7746 192.699 55.2667L190.89 50.8377C192.467 51.6169 194.057 52.428 195.661 53.2664L198.149 58.9621C198.618 59.5772 199.014 60.2562 199.333 60.9989L199.429 61.2313L199.415 61.4773C198.477 74.6595 185.13 77.4709 177.772 71.6704C177.735 72.6683 177.662 73.6434 177.562 74.6003C183.645 79.3528 186.406 85.896 185.85 94.0888L185.846 94.1662L184.921 98.2763L186.165 103.967L184.369 109.23L184.752 112.228C175.407 128.992 163.377 141.176 148.796 149.037C137.961 143.195 128.533 134.961 120.568 124.235C120.978 123.766 121.439 123.406 121.949 123.214C122.163 122.335 122.364 121.469 122.56 120.626C124.113 113.96 125.284 108.456 126.793 104.487C128.237 100.673 130.142 97.8662 133.318 97.0915C134.726 94.8953 136.849 93.8746 138.795 93.706C139.369 92.052 140.257 90.8126 141.342 90.1382C141.415 89.1039 142.062 88.2336 143.069 87.7961L142.663 85.7821C137.008 80.5375 134.922 76.7328 136.211 72.3903C135.017 69.7475 134.735 67.2232 135.942 64.2569L135.528 62.4251L130.265 60.361ZM128.205 54.401L133.304 54.8339L126.387 47.6527L128.205 54.401Z" fill="#AB8E63"/>
<path d="M122.796 124.089C123.065 122.987 123.316 121.911 123.562 120.863C150.61 113.354 170.463 112.994 183.126 119.77L182.702 121.519C173.548 135.303 162.234 145.615 148.796 152.527C137.655 146.795 127.973 138.725 119.771 128.277C120.445 125.716 121.639 124.089 122.796 124.089Z" fill="#100F0D"/>
<path fill-rule="evenodd" clip-rule="evenodd" d="M184.142 115.578L183.13 119.761C154 120.294 134.429 120.654 123.562 120.859C126.642 107.635 128.187 99.019 133.965 98.0074C135.336 95.5696 137.646 94.6538 139.56 94.713C140.162 92.4894 141.269 91.1817 142.403 90.7488C142.18 89.6962 142.855 88.6801 144.267 88.5434L143.602 85.249C137.605 79.7447 135.97 76.2452 137.314 72.322C136.033 69.6609 135.737 67.2733 137.018 64.3525L136.407 61.6642L118.413 54.606L135.942 56.0915L121.019 40.6037L141.583 50.4504C146.732 48.2314 151.111 48.245 156.875 52.1728L151.143 31.5406L147.99 24.1225C144.828 22.0447 142.909 20.1218 142.244 18.3539C141.679 16.2624 142.959 15.0094 140.526 8.96279C141.169 7.92389 142.121 8.02413 143.565 8.61649L149.188 6.37465C150.788 6.15138 152.961 6.58425 152.82 8.27019C153.799 8.22918 154.287 8.87165 154.41 10.4619C155.321 10.5849 156.155 11.7469 156.055 12.9179C157.176 13.2186 157.8 14.6631 157.714 15.8842C158.347 19.7573 156.811 23.5438 156.757 28.9297C168.376 46.7733 174.723 56.8889 175.79 59.2765C176.819 65.0634 177.052 70.3262 176.473 75.065C182.588 79.6216 185.372 85.937 184.825 94.0159L183.868 98.2717L185.099 103.904L183.322 109.121L184.142 115.578Z" fill="#100F0D"/>
<path fill-rule="evenodd" clip-rule="evenodd" d="M144.044 51.43L144.623 32.9531L153.768 51.0655L172.208 38.0109L161.65 55.3077L178.318 53.1934L161.769 59.6683L144.044 51.43Z" fill="#100F0D"/>
<path d="M146.746 3.17596H150.5V29.4218H146.746V3.17596Z" fill="#100F0D"/>
<path d="M144.987 28.4194C144.987 26.1776 146.796 24.364 149.029 24.364C151.261 24.364 153.07 26.1776 153.07 28.4194C153.07 30.6567 151.261 32.4702 149.029 32.4702C146.796 32.4702 144.987 30.6567 144.987 28.4194Z" fill="#100F0D"/>
<mask id="mask1_2_533" style="mask-type:luminance" maskUnits="userSpaceOnUse" x="144" y="0" width="9" height="7">
<path d="M144.768 0H152.934V6.63893H144.768V0Z" fill="white"/>
</mask>
<g mask="url(#mask1_2_533)">
<path d="M145.083 2.95267C145.083 1.33053 146.673 0.0182343 148.632 0.0182343C150.592 0.0182343 152.182 1.33053 152.182 2.95267C152.182 4.57481 150.592 5.8871 148.632 5.8871C146.673 5.8871 145.083 4.57481 145.083 2.95267Z" fill="#100F0D"/>
</g>
<path fill-rule="evenodd" clip-rule="evenodd" d="M156.502 65.4462C150.118 62.9719 146.459 61.081 145.534 59.6593L143.41 59.8735C142.126 61.8465 140.699 63.4048 139.123 64.5485L139.228 66.0294C138.257 69.0185 139.091 70.4128 139.442 71.9848C139.373 76.6553 140.262 78.5235 143.338 78.9108C144.226 79.0248 144.053 78.159 146.213 77.8811C149.416 77.4755 152.961 79.5396 156.77 76.7784C155.713 81.9774 147.871 79.1113 145.479 81.3486C146.495 88.7029 147.73 93.7197 149.193 96.3899C152.209 93.1729 154.998 88.229 158.52 85.3265C158.379 82.7247 158.452 79.0931 158.734 74.4363C158.21 74.6641 157.695 74.5958 157.199 74.2221C158.187 73.7801 158.734 73.2333 158.839 72.5726C156.748 70.103 155.968 67.7244 156.502 65.4462Z" fill="#AB8E63"/>
<path fill-rule="evenodd" clip-rule="evenodd" d="M163.118 73.976C162.862 70.3718 163.25 65.5327 163.979 59.4496C160.17 52.9201 156.233 43.7158 152.173 31.8413L151.767 21.7531C151.959 20.7142 152.692 19.534 153.968 18.2081L149.58 19.0465C148.682 18.9462 147.985 17.7615 148.596 17.1054L153.28 15.9662C153.617 15.5151 153.512 15.26 152.966 15.2098L147.593 16.3626C146.801 16.2487 146.45 15.6974 146.541 14.7132L151.981 13.1639C152.196 12.567 151.945 12.3164 151.225 12.4075L145.898 13.7062C145.142 13.5558 144.791 12.9908 144.85 12.0111L150.236 10.4118C150.592 10.0199 150.405 9.78751 149.68 9.71916L144.504 11.1226C143.862 11.0998 143.52 10.5667 143.47 9.52323L150.14 7.26772C151.33 7.25861 151.94 7.79629 151.968 8.87619C152.829 9.18604 153.275 9.83763 153.307 10.8264C154.323 11.1682 154.829 11.961 154.825 13.2095C156.005 13.8839 156.593 14.9501 156.597 16.4037C156.515 19.6525 156.037 23.6304 155.153 28.3419L173.734 58.7935C174.231 74.8463 176.04 88.229 170.613 87.5637C166.485 82.392 163.282 78.364 163.118 73.976Z" fill="#AB8E63"/>
<path fill-rule="evenodd" clip-rule="evenodd" d="M160.735 65.6421C150.979 57.2306 143.474 55.9639 138.225 61.8419L138.166 57.8184C142.094 51.1567 155.089 51.9541 161.017 61.4865L160.735 65.6421Z" fill="#AB8E63"/>
<path fill-rule="evenodd" clip-rule="evenodd" d="M138.444 55.0343C145.028 49.53 154.086 51.0974 161.372 58.6158L160.306 56.1826C153.303 48.4455 142.659 48.3043 138.444 55.0343Z" fill="#AB8E63"/>
<path fill-rule="evenodd" clip-rule="evenodd" d="M144.6 90.0835C144.782 93.7926 145.807 96.7999 147.666 99.0964C143.816 108.419 138.006 118.785 130.237 130.186C129.171 116.43 129.832 107.859 132.215 104.487C131.536 108.998 131.905 113.974 133.322 119.428C132.593 110.889 133.176 104.223 135.076 99.4336C134.224 104.227 134.625 108.77 136.275 113.058C135.546 102.546 136.566 97.2692 139.341 97.2282C139.25 100.208 139.724 102.701 140.763 104.71C140.344 97.6155 140.895 93.3597 142.403 91.9517C142.016 95.2598 142.381 97.6429 143.492 99.0964C143.032 94.4761 143.401 91.4687 144.6 90.0835Z" fill="#AB8E63"/>
<path fill-rule="evenodd" clip-rule="evenodd" d="M162.124 78.0085C164.813 85.9689 168.426 91.1634 172.96 93.6012L179.53 89.2132C179.412 93.9748 177.84 98.2215 174.823 101.949C171.488 100.801 168.608 97.9117 166.184 93.2867C167.888 98.1851 169.866 103.051 171.953 105.321L181.731 100.081C181.636 104.51 179.626 108.652 175.712 112.502L170.672 111.299C168.85 110.028 166.221 104.423 162.785 94.4897C164.48 104.122 166.161 110.679 167.829 114.151L174.176 117.222L180.528 111.727C179.266 119.332 177.261 124.057 174.509 125.907L167.606 123.151C164.061 116.548 161.614 107.143 160.256 94.9317C160.046 108.829 161.514 118.681 164.653 124.481L172.427 132.277C170.367 133.886 168.503 135.754 166.831 137.887L158.078 129.111L156.638 99.4336C154.893 112.516 154.893 123.72 156.638 133.034L160.479 141.277C158.338 140.894 156.702 144.589 155.189 146.07L151.708 107.672C150.227 129.557 149.826 143.14 150.496 148.412L143.602 144.033C146.554 136.378 147.949 126.819 147.776 115.354C145.807 123.697 143.374 134.032 141.109 144.065L135.719 142.384C135.409 140.666 136.32 136.524 138.453 129.963C135.901 133.972 134.229 137.235 133.432 139.736L130.657 136.182C143.251 112.11 152.651 91.5644 159.39 87.0078C159.204 89.1311 159.677 91.0358 160.812 92.7308L160.479 82.7292C161.723 86.8848 163.113 90.4708 164.653 93.4872L162.124 78.0085Z" fill="#AB8E63"/>
<path fill-rule="evenodd" clip-rule="evenodd" d="M141.642 9.45486C143.83 12.4531 144.345 15.2554 143.178 17.8526C142.381 16.0938 143.652 14.1573 141.642 9.45486Z" fill="#AB8E63"/>
<path fill-rule="evenodd" clip-rule="evenodd" d="M144.896 68.1846C145.242 68.3897 145.794 68.3897 146.541 68.1846C146.996 69.0413 147.511 69.7065 148.085 70.1804C147.297 70.2123 146.55 70.3034 145.853 70.4447L144.354 70.1804C144.632 69.7749 144.809 69.1142 144.896 68.1846Z" fill="#100F0D"/>
<path fill-rule="evenodd" clip-rule="evenodd" d="M149.174 72.5134L147.047 71.6841L146.263 72.0714L145.338 71.7479L143.907 72.7594L143.474 72.6455L143.41 73.5067L144.13 73.0693L145.019 72.928C145.894 73.1103 147.097 73.0419 147.89 72.7913L149.553 73.2196L149.307 72.0896L149.174 72.5134Z" fill="#100F0D"/>
<path fill-rule="evenodd" clip-rule="evenodd" d="M148.5 74.1036C146.892 74.6595 145.68 74.8372 144.354 74.3542L143.474 75.3202L144.55 75.0787C145.999 75.6255 147.033 75.5572 148.14 75.0514L149.421 75.1106L148.5 74.1036Z" fill="#100F0D"/>
<path fill-rule="evenodd" clip-rule="evenodd" d="M142.741 55.1983V57.7682C142.526 58.0735 142.194 58.1783 141.743 58.0872C141.993 57.8913 142.139 57.668 142.185 57.4174L142.153 55.572C142.399 55.1163 142.599 54.9933 142.741 55.1983Z" fill="#100F0D"/>
<path fill-rule="evenodd" clip-rule="evenodd" d="M144.413 54.5833L144.54 57.021L143.802 57.5724C144.381 57.5405 144.837 57.3537 145.165 56.9983L145.087 54.3235C144.8 54.1367 144.577 54.2187 144.413 54.5833Z" fill="#100F0D"/>
<path fill-rule="evenodd" clip-rule="evenodd" d="M147.06 54.3508L146.883 56.8159L146.286 57.185C146.714 57.4584 147.129 57.4584 147.52 57.185L147.803 54.3782C147.602 54.0273 147.352 54.0182 147.06 54.3508Z" fill="#100F0D"/>
<path fill-rule="evenodd" clip-rule="evenodd" d="M149.471 54.6607L149.165 57.2352C149.466 57.6635 149.876 57.782 150.4 57.5952C150.136 57.4676 149.99 57.2944 149.967 57.0848L150.323 54.9387C150.095 54.3873 149.812 54.2916 149.471 54.6607Z" fill="#100F0D"/>
<path fill-rule="evenodd" clip-rule="evenodd" d="M151.713 55.3761L151.343 57.905C151.576 58.3971 151.963 58.6112 152.501 58.5429C152.182 58.192 152.054 57.9186 152.118 57.7227L152.501 55.7679C152.428 55.3442 152.164 55.212 151.713 55.3761Z" fill="#100F0D"/>
<path fill-rule="evenodd" clip-rule="evenodd" d="M154.096 56.538L153.635 59.0669C153.827 59.4542 154.173 59.6592 154.679 59.6775C154.46 59.4314 154.36 59.2218 154.374 59.0395L154.806 57.0483C154.67 56.6519 154.433 56.4833 154.096 56.538Z" fill="#100F0D"/>
<path fill-rule="evenodd" clip-rule="evenodd" d="M156.429 57.8777L155.813 60.4066C155.882 60.7984 156.214 61.0627 156.82 61.1994C156.615 60.9078 156.538 60.6617 156.588 60.4567L157.126 58.3652C157.035 57.7182 156.802 57.5541 156.429 57.8777Z" fill="#100F0D"/>
<path fill-rule="evenodd" clip-rule="evenodd" d="M158.324 59.7185L157.627 61.7507C157.755 62.1608 158.073 62.4479 158.579 62.6074C158.356 62.2702 158.269 62.0105 158.324 61.8282L158.912 60.2334C158.866 59.6274 158.67 59.4542 158.324 59.7185Z" fill="#100F0D"/>
<path fill-rule="evenodd" clip-rule="evenodd" d="M140.717 56.5608L140.64 58.7844C140.307 59.1444 139.966 59.2993 139.61 59.2446L139.993 58.7206V57.0484C140.143 56.5061 140.385 56.3421 140.717 56.5608Z" fill="#100F0D"/>
<path fill-rule="evenodd" clip-rule="evenodd" d="M159.814 61.1903L159.117 63.2225C159.222 63.6827 159.541 63.9653 160.069 64.0746C159.778 63.7511 159.696 63.4914 159.814 63.2954L160.402 61.7006C160.302 61.1493 160.106 60.9807 159.814 61.1903Z" fill="#100F0D"/>
<path fill-rule="evenodd" clip-rule="evenodd" d="M145.397 36.8172L150.733 48.76C148.878 48.3726 147.147 48.3043 145.534 48.5549L145.397 36.8172Z" fill="#AB8E63"/>
<path fill-rule="evenodd" clip-rule="evenodd" d="M125.02 43.57L139.401 52.0498C138.307 53.0249 137.601 54.0091 137.286 55.007L125.02 43.57Z" fill="#AB8E63"/>
<path fill-rule="evenodd" clip-rule="evenodd" d="M148.254 1.19833C147.712 2.72023 148.035 3.97785 149.225 4.97118L149.088 6.01008L148.122 6.68445L148.186 5.17167C146.308 3.4994 146.331 2.17344 148.254 1.19833Z" fill="#AB8E63"/>
<path fill-rule="evenodd" clip-rule="evenodd" d="M148.482 22.3272L148.345 25.7583H149.626V21.4478L148.482 22.3272Z" fill="#AB8E63"/>
<path fill-rule="evenodd" clip-rule="evenodd" d="M129.253 60.7347C128.424 75.7941 106.019 76.8467 104.839 60.2517C108.475 51.7764 123.38 53.0751 129.253 60.7347Z" fill="#100F0D"/>
<path d="M117.452 27.499C117.452 26.4692 118.304 25.6353 119.356 25.6353C120.413 25.6353 121.265 26.4692 121.265 27.499C121.265 28.5288 120.413 29.3626 119.356 29.3626C118.304 29.3626 117.452 28.5288 117.452 27.499Z" fill="#100F0D"/>
<path d="M126.788 59.0806L119.534 29.3626L107.423 58.8436L105.044 60.4521L119.721 26.8884L128.82 60.6253L126.788 59.0806Z" fill="#100F0D"/>
<path fill-rule="evenodd" clip-rule="evenodd" d="M108.01 59.0031C114.768 54.9887 121.402 55.8727 127.909 61.655C126.068 65.9473 122.596 68.663 117.506 69.8022L119.42 64.3115C118.358 61.8965 114.554 60.124 108.01 59.0031Z" fill="#AB8E63"/>
<path d="M119.917 28.4331L119.16 55.7862L117.187 55.5493L119.63 26.3598L119.917 28.4331Z" fill="#100F0D"/>
<path fill-rule="evenodd" clip-rule="evenodd" d="M173.976 61.8874C174.805 76.9515 197.21 77.9995 198.39 61.4044C194.754 52.9337 179.849 54.2324 173.976 61.8874Z" fill="#100F0D"/>
<path d="M181.964 28.6563C181.964 27.6265 182.816 26.7927 183.868 26.7927C184.925 26.7927 185.778 27.6265 185.778 28.6563C185.778 29.6861 184.925 30.5199 183.868 30.5199C182.816 30.5199 181.964 29.6861 181.964 28.6563Z" fill="#100F0D"/>
<path d="M174.409 61.7826L183.508 28.0457L198.185 61.6049L195.802 60.1422L183.691 30.5199L176.318 60.8439L174.409 61.7826Z" fill="#100F0D"/>
<path fill-rule="evenodd" clip-rule="evenodd" d="M195.219 60.1605C188.461 56.1462 181.827 57.0301 175.32 62.8124C177.161 67.1002 180.629 69.8159 185.723 70.9596L183.809 65.4689C184.866 63.0539 188.671 61.2814 195.219 60.1605Z" fill="#AB8E63"/>
<path d="M183.827 29.0664L186.999 56.8433L184.647 57.1942L183.312 29.5859L183.827 29.0664Z" fill="#100F0D"/>
<path fill-rule="evenodd" clip-rule="evenodd" d="M158.78 69.3739C155.996 69.2007 152.492 67.9841 148.764 66.7858C147.903 66.3164 147.005 65.8289 146.8 65.5874L145.206 65.8198L143.962 67.3599C140.462 69.5789 138.394 70.2943 138.184 69.8523V68.9775C142.153 69.2736 144.249 65.0907 144.249 65.0907C145.306 64.6077 146.281 64.4847 147.17 64.7262L149.685 66.002C153.12 67.0637 155.95 67.6606 158.165 67.7882L158.78 69.3739Z" fill="#100F0D"/>
<path fill-rule="evenodd" clip-rule="evenodd" d="M148.04 60.9215C145.666 60.9807 142.946 60.4385 140.804 62.5482L141.825 60.9761C143.629 60.402 145.575 60.0147 147.575 60.279L148.04 60.9215Z" fill="#100F0D"/>
<path fill-rule="evenodd" clip-rule="evenodd" d="M138.676 65.4962C140.23 65.0907 142.012 64.2705 144.021 63.0311C142.217 64.9084 140.389 66.2526 138.539 67.0546L138.676 65.4962Z" fill="#100F0D"/>
<path fill-rule="evenodd" clip-rule="evenodd" d="M152.473 63.8969C153.954 64.5303 156.647 65.2912 160.557 66.1752L160.689 68.6449L156.319 67.5558L152.473 63.8969Z" fill="#AB8E63"/>
<path fill-rule="evenodd" clip-rule="evenodd" d="M158.096 65.8425C155.417 65.6602 151.307 64.43 147.261 63.1222C150.847 65.1271 157.303 66.8996 160.689 67.0956L158.096 65.8425Z" fill="#100F0D"/>
<path fill-rule="evenodd" clip-rule="evenodd" d="M159.759 89.0947C155.025 92.658 150.254 100.545 145.447 112.757C151.302 101.589 156.192 94.4487 160.115 91.3366L159.759 89.0947Z" fill="#100F0D"/>
<path fill-rule="evenodd" clip-rule="evenodd" d="M141.109 113.454C140.567 112.944 139.902 110.789 139.109 106.979C138.954 111.13 138.954 114.343 139.109 116.63L141.109 113.454Z" fill="#100F0D"/>
<path fill-rule="evenodd" clip-rule="evenodd" d="M177.27 77.1747L177.854 83.768L181.225 87.6457L180.474 94.7175L183.094 87.231L177.27 77.1747Z" fill="#AB8E63"/>
<path fill-rule="evenodd" clip-rule="evenodd" d="M119.242 26.5922C138.69 28.1916 159.208 28.8796 184.164 28.3511L184.324 29.0573C159.814 33.3086 139.182 32.6935 118.983 27.5309L119.242 26.5922Z" fill="#100F0D"/>
<path d="M147.042 28.4786C147.042 27.5491 147.789 26.7973 148.714 26.7973C149.644 26.7973 150.396 27.5491 150.396 28.4786C150.396 29.4082 149.644 30.16 148.714 30.16C147.789 30.16 147.042 29.4082 147.042 28.4786Z" fill="#AB8E63"/>
<path d="M169.292 85.9006C170.135 78.9746 170.408 70.3627 170.107 60.0694L161.049 38.0064L173.734 58.7935C174.231 74.8464 176.04 88.229 170.613 87.5638C170.162 86.9988 169.72 86.4428 169.292 85.9006Z" fill="#182B37"/>
<path d="M152.647 80.0545L149.38 82.6518C148.928 84.283 149.653 87.9146 151.553 93.5466C150.774 94.5672 149.99 95.5423 149.193 96.3899C147.73 93.7197 146.495 88.7029 145.479 81.3486C146.851 80.0682 150.004 80.4601 152.647 80.0545Z" fill="#182B37"/>
<path d="M163.906 134.957L160.771 126.149L161.6 115.117C162.325 118.94 163.345 122.066 164.653 124.481L172.427 132.277C170.367 133.886 168.504 135.754 166.831 137.887L163.906 134.957ZM177.699 121.82L172.91 122.431L169.593 115.003L174.176 117.223L180.528 111.727C179.822 115.997 178.879 119.36 177.699 121.82ZM179.731 107.321L171.566 108.137L169.989 102.427C170.627 103.603 171.283 104.592 171.953 105.321L181.731 100.081C181.677 102.587 181.011 105.002 179.731 107.321ZM170.189 98.9507L173.675 99.1694L179.289 91.9745C178.733 95.6335 177.248 98.9552 174.823 101.949C173.165 101.379 171.62 100.377 170.189 98.9507Z" fill="#182B37"/>
</svg>
