<svg width="90" height="116" viewBox="0 0 90 116" fill="none" xmlns="http://www.w3.org/2000/svg">
<mask id="mask0_2_974" style="mask-type:luminance" maskUnits="userSpaceOnUse" x="0" y="23" width="90" height="93">
<path d="M0 23.1181H89.7959V116H0V23.1181Z" fill="white"/>
</mask>
<g mask="url(#mask0_2_974)">
<path fill-rule="evenodd" clip-rule="evenodd" d="M44.8979 23.1932C58.4199 25.4736 73.3893 31.3794 89.7993 40.9107C83.4053 79.2132 68.4393 104.246 44.8979 116C21.36 104.246 6.39399 79.2132 0 40.9107C16.41 31.3794 31.376 25.4736 44.8979 23.1932Z" fill="#282A3B"/>
</g>
<path fill-rule="evenodd" clip-rule="evenodd" d="M88.1028 41.7129C81.719 78.7898 67.2173 102.792 44.8981 114.273C22.5822 102.792 8.08053 78.7898 1.69678 41.7129C17.5367 32.6152 31.9326 26.9859 44.8981 24.7601C57.867 26.9859 72.2629 32.6152 88.1028 41.7129Z" fill="#AB8E63"/>
<path fill-rule="evenodd" clip-rule="evenodd" d="M44.8978 111.658C24.3844 100.597 10.5996 78.1003 4.25342 42.9179C19.216 34.4723 32.755 29.2526 44.8978 27.1088C57.0406 29.2526 70.583 34.4723 85.5456 42.9179C79.1994 78.1003 65.4146 100.597 44.8978 111.658Z" fill="#282A3B"/>
<path d="M31.0142 45.2222L31.0415 45.2564L31.0244 45.5431C30.3553 57.7269 12.1531 58.6554 11.1972 45.1949L11.1836 45.0072L11.2587 44.8331C11.4977 44.2766 11.7947 43.768 12.1429 43.3105L14.7168 37.4252C15.8639 36.8687 17.0007 36.3362 18.1272 35.8207L16.1814 40.5556C17.5537 40.1118 19.0592 39.9445 20.5783 40.0197L21.0357 34.5337C21.9301 34.148 22.8143 33.7793 23.6951 33.4208L23.5073 40.2552L26.706 40.5249L24.8592 32.9566C26.0437 32.4855 27.2181 32.0417 28.3822 31.6218L39.5145 36.9507C39.89 36.797 40.2621 36.6605 40.6308 36.5376L40.9005 27.9144C41.9246 27.6823 42.9385 27.474 43.9456 27.2829L48.8443 36.9848L48.9877 37.0531L49.4895 36.7015L46.9292 27.4945C50.2883 28.1704 53.7465 29.0785 57.3139 30.2221L57.727 30.8673L58.2254 30.5157C59.2802 30.8639 60.3453 31.2326 61.4207 31.6218L59.8503 34.1923C61.1954 36.3089 62.3151 38.0977 63.2129 39.5554L65.1724 39.3062L66.6949 33.6632C67.4494 33.9739 68.2107 34.2948 68.9753 34.6259L67.6542 40.047L66.9646 39.272L67.2753 40.5044L67.6474 40.0811L67.0158 42.679C68.2345 42.0167 69.5591 41.532 70.9109 41.2315L70.6242 35.3496C71.6176 35.7934 72.6178 36.2543 73.6249 36.7288L74.096 40.8697C75.3727 40.8663 76.629 41.037 77.7897 41.4056L76.4344 38.0875C77.6156 38.6712 78.807 39.2789 80.0086 39.907L81.8726 44.1742C82.2242 44.6351 82.5212 45.1437 82.7601 45.7002L82.8318 45.8743L82.8216 46.0586C82.1184 55.9347 72.1194 58.041 66.6062 53.6952C66.5789 54.4428 66.5242 55.1734 66.4491 55.8903C71.0065 59.4508 73.0753 64.353 72.6588 70.491L72.6554 70.549L71.9624 73.6282L72.8943 77.892L71.5493 81.8349L71.8361 84.0812C64.8344 96.6405 55.8221 105.769 44.898 111.658C36.7801 107.281 29.717 101.113 23.7497 93.0765C24.0569 92.7249 24.4017 92.4552 24.7841 92.3118C24.9445 91.653 25.0947 91.0043 25.2415 90.3728C26.4056 85.3784 27.2829 81.2546 28.4129 78.2812C29.4951 75.4239 30.922 73.321 33.3014 72.7407C34.3563 71.0952 35.9471 70.3305 37.4048 70.2042C37.8349 68.965 38.5006 68.0365 39.3131 67.5312C39.3677 66.7563 39.8524 66.1043 40.6069 65.7766L40.3031 64.2677C36.0666 60.3384 34.5031 57.4879 35.4692 54.2346C34.5748 52.2546 34.3631 50.3634 35.2678 48.141L34.9571 46.7687L31.0142 45.2222ZM29.4712 40.757L33.2912 41.0813L28.1091 35.7012L29.4712 40.757Z" fill="#AB8E63"/>
<path d="M25.4191 92.9673C25.6205 92.1412 25.8083 91.3355 25.9926 90.5504C46.2568 84.9245 61.1306 84.6548 70.6174 89.7311L70.3 91.0419C63.4417 101.369 54.9653 109.094 44.8981 114.273C36.5514 109.978 29.2971 103.932 23.1523 96.1046C23.6576 94.186 24.552 92.9673 25.4191 92.9673Z" fill="#100F0D"/>
<path fill-rule="evenodd" clip-rule="evenodd" d="M71.3787 86.5903L70.6208 89.7242C48.7966 90.1236 34.1344 90.3933 25.9926 90.5469C28.3003 80.6401 29.4576 74.1847 33.7862 73.4268C34.8138 71.6005 36.5445 70.9143 37.9783 70.9587C38.4289 69.2928 39.2585 68.313 40.1085 67.9887C39.9412 67.2001 40.4465 66.4388 41.5048 66.3364L41.0063 63.8683C36.5138 59.7444 35.2883 57.1227 36.2953 54.1834C35.3361 52.1898 35.1142 50.4009 36.0734 48.2127L35.616 46.1986L22.135 40.9107L35.2678 42.0235L24.0877 30.4201L39.494 37.7973C43.3516 36.1348 46.6322 36.145 50.9507 39.0877L46.6561 23.6301L44.2938 18.0725C41.9246 16.5158 40.4874 15.0752 39.989 13.7507C39.5657 12.1838 40.525 11.245 38.702 6.7149C39.1834 5.93656 39.8969 6.01166 40.979 6.45545L45.1916 4.77588C46.3899 4.6086 48.0182 4.93291 47.9124 6.19601C48.6464 6.16528 49.0116 6.64662 49.1038 7.83803C49.7866 7.9302 50.4113 8.80072 50.3362 9.67806C51.176 9.90336 51.6437 10.9855 51.5788 11.9004C52.0533 14.8021 50.9029 17.639 50.8619 21.6741C59.567 35.0424 64.3224 42.621 65.1212 44.4098C65.8927 48.7453 66.0668 52.6882 65.6333 56.2385C70.2146 59.6523 72.3004 64.3838 71.8907 70.4364L71.1738 73.6248L72.0956 77.8443L70.7642 81.753L71.3787 86.5903Z" fill="#100F0D"/>
<path fill-rule="evenodd" clip-rule="evenodd" d="M41.3374 38.5312L41.771 24.6884L48.6224 38.2581L62.4379 28.4776L54.5282 41.4363L67.0158 39.8523L54.617 44.7033L41.3374 38.5312Z" fill="#100F0D"/>
<path d="M43.3618 2.37943H46.1748V22.0428H43.3618V2.37943Z" fill="#100F0D"/>
<path d="M42.0439 21.2917C42.0439 19.6121 43.3992 18.2534 45.072 18.2534C46.7447 18.2534 48.1 19.6121 48.1 21.2917C48.1 22.9679 46.7447 24.3265 45.072 24.3265C43.3992 24.3265 42.0439 22.9679 42.0439 21.2917Z" fill="#100F0D"/>
<mask id="mask1_2_974" style="mask-type:luminance" maskUnits="userSpaceOnUse" x="41" y="0" width="7" height="5">
<path d="M41.8801 0H47.9976V4.97387H41.8801V0Z" fill="white"/>
</mask>
<g mask="url(#mask1_2_974)">
<path d="M42.1157 2.21214C42.1157 0.996838 43.3071 0.0136719 44.7751 0.0136719C46.243 0.0136719 47.4344 0.996838 47.4344 2.21214C47.4344 3.42744 46.243 4.41061 44.7751 4.41061C43.3071 4.41061 42.1157 3.42744 42.1157 2.21214Z" fill="#100F0D"/>
</g>
<path fill-rule="evenodd" clip-rule="evenodd" d="M50.6708 49.032C45.8881 47.1783 43.1468 45.7616 42.4538 44.6965L40.863 44.857C39.9003 46.3351 38.8318 47.5027 37.6506 48.3595L37.7292 49.469C37.002 51.7084 37.6267 52.753 37.8896 53.9308C37.8384 57.4299 38.5041 58.8295 40.8084 59.1197C41.4741 59.2051 41.3443 58.5564 42.9625 58.3482C45.3624 58.0444 48.0183 59.5908 50.8722 57.5221C50.0802 61.4172 44.2051 59.2699 42.4129 60.9461C43.1741 66.4559 44.0993 70.2145 45.1951 72.2149C47.455 69.8048 49.5442 66.1009 52.1831 63.9263C52.0772 61.977 52.1319 59.2563 52.3435 55.7674C51.9509 55.9381 51.5652 55.8869 51.1931 55.6069C51.9339 55.2758 52.3435 54.8662 52.422 54.3712C50.8551 52.5209 50.2714 50.7389 50.6708 49.032Z" fill="#AB8E63"/>
<path fill-rule="evenodd" clip-rule="evenodd" d="M55.6274 55.4226C55.4362 52.7223 55.7264 49.0968 56.2726 44.5395C53.4187 39.6475 50.4692 32.7517 47.4275 23.8554L47.1237 16.2973C47.2671 15.519 47.8167 14.6348 48.7726 13.6414L45.4851 14.2695C44.8126 14.1944 44.2903 13.3069 44.7477 12.8153L48.2571 11.9618C48.5097 11.6239 48.4312 11.4327 48.0215 11.3951L43.9967 12.2588C43.4027 12.1735 43.1398 11.7604 43.2081 11.023L47.2842 9.86236C47.4446 9.41516 47.2568 9.2274 46.7175 9.29568L42.7268 10.2686C42.1601 10.1559 41.8972 9.73264 41.9416 8.99868L45.9767 7.80044C46.243 7.50686 46.103 7.33276 45.5602 7.28155L41.6822 8.33299C41.2008 8.31592 40.9448 7.91651 40.9072 7.13476L45.905 5.44494C46.796 5.43811 47.2534 5.84094 47.2739 6.65C47.9191 6.88214 48.2537 7.37031 48.2776 8.1111C49.0388 8.36713 49.4178 8.96113 49.4143 9.8965C50.2985 10.4017 50.7389 11.2006 50.7423 12.2896C50.6809 14.7236 50.3224 17.7038 49.6601 21.2336L63.5815 44.0479C63.9536 56.0746 65.3089 66.1008 61.2431 65.6024C58.1502 61.7278 55.7503 58.71 55.6274 55.4226Z" fill="#AB8E63"/>
<path fill-rule="evenodd" clip-rule="evenodd" d="M53.842 49.1788C46.5331 42.877 40.9106 41.928 36.978 46.3317L36.9336 43.3174C39.8763 38.3264 49.6123 38.9238 54.0537 46.0654L53.842 49.1788Z" fill="#AB8E63"/>
<path fill-rule="evenodd" clip-rule="evenodd" d="M37.1418 41.2315C42.0747 37.1077 48.8613 38.282 54.3199 43.9147L53.5211 42.0918C48.2742 36.2952 40.2996 36.1894 37.1418 41.2315Z" fill="#AB8E63"/>
<path fill-rule="evenodd" clip-rule="evenodd" d="M41.7537 67.4903C41.8903 70.2691 42.6584 72.5222 44.0512 74.2427C41.1666 81.2273 36.814 88.9936 30.9935 97.5349C30.1947 87.2287 30.6897 80.8074 32.4751 78.2812C31.9665 81.6608 32.243 85.3887 33.3047 89.475C32.7585 83.0775 33.1954 78.0832 34.619 74.4953C33.9806 78.0866 34.281 81.4901 35.5168 84.7025C34.9706 76.8269 35.7353 72.8738 37.8143 72.8431C37.746 75.0757 38.101 76.943 38.8794 78.4485C38.5653 73.1332 38.9784 69.9448 40.1083 68.8899C39.8181 71.3683 40.0912 73.1537 40.9242 74.2427C40.5794 70.7811 40.8559 68.5281 41.7537 67.4903Z" fill="#AB8E63"/>
<path fill-rule="evenodd" clip-rule="evenodd" d="M54.8831 58.4437C56.8973 64.4076 59.6044 68.2993 63.0011 70.1257L67.9237 66.8382C67.835 70.4056 66.6572 73.5872 64.3973 76.3797C61.8984 75.5194 59.7409 73.3551 57.9248 69.8901C59.2015 73.5599 60.6831 77.2058 62.2466 78.9059L69.5726 74.98C69.5009 78.2982 67.9954 81.4013 65.063 84.286L61.2874 83.3847C59.9219 82.4323 57.9521 78.2334 55.3781 70.7913C56.648 78.0081 57.9077 82.9205 59.1572 85.5218L63.9126 87.8226L68.6714 83.7056C67.7257 89.4032 66.2237 92.9433 64.1618 94.3293L58.9899 92.264C56.334 87.3174 54.5008 80.2714 53.4835 71.1225C53.3264 81.5345 54.4257 88.9151 56.7778 93.2608L62.6017 99.1018C61.0586 100.307 59.6624 101.706 58.4096 103.304L51.8517 96.7292L50.7729 74.4953C49.4655 84.2962 49.4655 92.6907 50.7729 99.6684L53.6508 105.844C52.0463 105.557 50.8207 108.326 49.6874 109.435L47.0792 80.6674C45.9698 97.0637 45.6694 107.24 46.1712 111.19L41.0061 107.909C43.2183 102.174 44.2629 95.0121 44.1332 86.423C42.6584 92.6736 40.8355 100.416 39.1388 107.933L35.1003 106.674C34.8682 105.387 35.5509 102.283 37.1486 97.3676C35.2369 100.372 33.984 102.816 33.3866 104.69L31.3076 102.027C40.7433 83.9924 47.7859 68.5997 52.8349 65.1859C52.6949 66.7767 53.0499 68.2037 53.9 69.4736L53.6508 61.9804C54.5827 65.0938 55.6239 67.7804 56.7778 70.0403L54.8831 58.4437Z" fill="#AB8E63"/>
<path fill-rule="evenodd" clip-rule="evenodd" d="M39.5383 7.08356C41.1769 9.32982 41.5627 11.4293 40.6888 13.3751C40.0914 12.0574 41.0438 10.6066 39.5383 7.08356Z" fill="#AB8E63"/>
<path fill-rule="evenodd" clip-rule="evenodd" d="M41.9758 51.0837C42.2353 51.2373 42.6483 51.2373 43.2082 51.0837C43.5496 51.7255 43.9353 52.2239 44.3655 52.5789C43.7749 52.6028 43.215 52.6711 42.6927 52.7769L41.5696 52.5789C41.7778 52.2751 41.911 51.7801 41.9758 51.0837Z" fill="#100F0D"/>
<path fill-rule="evenodd" clip-rule="evenodd" d="M45.1812 54.3268L43.587 53.7055L42.9998 53.9956L42.3068 53.7533L41.2349 54.5111L40.9106 54.4258L40.8628 55.071L41.4022 54.7433L42.0679 54.6374C42.7233 54.774 43.6245 54.7228 44.2185 54.535L45.4646 54.8559L45.2802 54.0093L45.1812 54.3268Z" fill="#100F0D"/>
<path fill-rule="evenodd" clip-rule="evenodd" d="M44.676 55.5182C43.471 55.9347 42.5629 56.0678 41.5695 55.7059L40.9106 56.4297L41.7163 56.2487C42.8019 56.6584 43.5768 56.6072 44.4063 56.2283L45.3656 56.2726L44.676 55.5182Z" fill="#100F0D"/>
<path fill-rule="evenodd" clip-rule="evenodd" d="M40.3609 41.3544V43.2798C40.2004 43.5085 39.9512 43.587 39.6133 43.5187C39.801 43.3719 39.9103 43.2047 39.9444 43.0169L39.9205 41.6343C40.1049 41.293 40.2551 41.2008 40.3609 41.3544Z" fill="#100F0D"/>
<path fill-rule="evenodd" clip-rule="evenodd" d="M41.6139 40.8936L41.7095 42.72L41.1565 43.133C41.59 43.1091 41.9314 42.9692 42.1772 42.7029L42.1192 40.699C41.9041 40.5591 41.7368 40.6205 41.6139 40.8936Z" fill="#100F0D"/>
<path fill-rule="evenodd" clip-rule="evenodd" d="M43.5974 40.7195L43.4643 42.5663L43.0171 42.8428C43.338 43.0476 43.6486 43.0476 43.9422 42.8428L44.1539 40.7399C44.0037 40.4771 43.8159 40.4703 43.5974 40.7195Z" fill="#100F0D"/>
<path fill-rule="evenodd" clip-rule="evenodd" d="M45.4033 40.9516L45.1746 42.8804C45.3999 43.2013 45.7071 43.2901 46.0997 43.1501C45.9017 43.0545 45.7925 42.9248 45.7754 42.7677L46.0417 41.1599C45.871 40.7468 45.6593 40.6751 45.4033 40.9516Z" fill="#100F0D"/>
<path fill-rule="evenodd" clip-rule="evenodd" d="M47.0829 41.4876L46.8064 43.3822C46.9805 43.7509 47.2707 43.9113 47.6735 43.8601C47.4345 43.5973 47.3389 43.3924 47.3867 43.2456L47.6735 41.7811C47.6189 41.4637 47.4209 41.3647 47.0829 41.4876Z" fill="#100F0D"/>
<path fill-rule="evenodd" clip-rule="evenodd" d="M48.8682 42.3581L48.5234 44.2527C48.6668 44.5429 48.9263 44.6965 49.3052 44.7102C49.1413 44.5258 49.0662 44.3688 49.0765 44.2322L49.4008 42.7404C49.2984 42.4434 49.1208 42.3171 48.8682 42.3581Z" fill="#100F0D"/>
<path fill-rule="evenodd" clip-rule="evenodd" d="M50.6161 43.3617L50.1553 45.2564C50.2065 45.55 50.4557 45.748 50.9097 45.8504C50.7561 45.6319 50.6981 45.4476 50.7356 45.2939L51.1384 43.727C51.0702 43.2423 50.8961 43.1194 50.6161 43.3617Z" fill="#100F0D"/>
<path fill-rule="evenodd" clip-rule="evenodd" d="M52.0362 44.7409L51.5139 46.2634C51.6095 46.5707 51.8485 46.7858 52.2274 46.9052C52.0601 46.6526 51.9953 46.458 52.0362 46.3215L52.4766 45.1267C52.4425 44.6726 52.2957 44.5429 52.0362 44.7409Z" fill="#100F0D"/>
<path fill-rule="evenodd" clip-rule="evenodd" d="M38.8452 42.3752L38.7871 44.0411C38.5379 44.3108 38.2819 44.4269 38.0156 44.3859L38.3024 43.9933V42.7405C38.415 42.3342 38.596 42.2113 38.8452 42.3752Z" fill="#100F0D"/>
<path fill-rule="evenodd" clip-rule="evenodd" d="M53.1524 45.8436L52.6301 47.3661C52.7086 47.7109 52.9476 47.9226 53.3436 48.0045C53.1251 47.7621 53.0637 47.5675 53.1524 47.4207L53.5928 46.2259C53.5177 45.8129 53.3709 45.6865 53.1524 45.8436Z" fill="#100F0D"/>
<path fill-rule="evenodd" clip-rule="evenodd" d="M42.3513 27.5833L46.3488 36.5308C44.9594 36.2406 43.6622 36.1894 42.4537 36.3772L42.3513 27.5833Z" fill="#AB8E63"/>
<path fill-rule="evenodd" clip-rule="evenodd" d="M27.085 32.6425L37.8588 38.9955C37.0395 39.7261 36.5104 40.4635 36.2748 41.2111L27.085 32.6425Z" fill="#AB8E63"/>
<path fill-rule="evenodd" clip-rule="evenodd" d="M44.4919 0.897797C44.0856 2.038 44.328 2.9802 45.219 3.7244L45.1166 4.50274L44.3929 5.00798L44.4406 3.87461C43.0342 2.62175 43.0512 1.62834 44.4919 0.897797Z" fill="#AB8E63"/>
<path fill-rule="evenodd" clip-rule="evenodd" d="M44.6625 16.7275L44.5601 19.2981H45.5193V16.0686L44.6625 16.7275Z" fill="#AB8E63"/>
<path fill-rule="evenodd" clip-rule="evenodd" d="M30.2563 45.5022C29.635 56.7847 12.8495 57.5733 11.9653 45.1403C14.6895 38.7907 25.856 39.7637 30.2563 45.5022Z" fill="#100F0D"/>
<path d="M21.4146 20.6022C21.4146 19.8307 22.0529 19.2059 22.8415 19.2059C23.6335 19.2059 24.2719 19.8307 24.2719 20.6022C24.2719 21.3737 23.6335 21.9984 22.8415 21.9984C22.0529 21.9984 21.4146 21.3737 21.4146 20.6022Z" fill="#100F0D"/>
<path d="M28.4094 44.263L22.9747 21.9984L13.9009 44.0855L12.1189 45.2905L23.1147 20.1447L29.932 45.4202L28.4094 44.263Z" fill="#100F0D"/>
<path fill-rule="evenodd" clip-rule="evenodd" d="M14.3413 44.2049C19.4039 41.1974 24.3744 41.8596 29.2493 46.1917C27.8701 49.4075 25.2688 51.4421 21.4556 52.2955L22.8894 48.182C22.094 46.3727 19.2435 45.0447 14.3413 44.2049Z" fill="#AB8E63"/>
<path d="M23.2614 21.302L22.6947 41.7948L21.2166 41.6173L23.0463 19.7487L23.2614 21.302Z" fill="#100F0D"/>
<path fill-rule="evenodd" clip-rule="evenodd" d="M63.7625 46.3658C64.3838 57.6518 81.1693 58.4369 82.0534 46.004C79.3293 39.6578 68.1628 40.6307 63.7625 46.3658Z" fill="#100F0D"/>
<path d="M69.7468 21.4692C69.7468 20.6977 70.3852 20.073 71.1738 20.073C71.9658 20.073 72.6042 20.6977 72.6042 21.4692C72.6042 22.2407 71.9658 22.8654 71.1738 22.8654C70.3852 22.8654 69.7468 22.2407 69.7468 21.4692Z" fill="#100F0D"/>
<path d="M64.0869 46.2873L70.9042 21.0117L81.9 46.1541L80.1146 45.0583L71.0408 22.8654L65.5173 45.584L64.0869 46.2873Z" fill="#100F0D"/>
<path fill-rule="evenodd" clip-rule="evenodd" d="M79.6775 45.072C74.6148 42.0645 69.6444 42.7268 64.7695 47.0588C66.1487 50.2712 68.7466 52.3058 72.5632 53.1627L71.1294 49.0491C71.9214 47.2398 74.7719 45.9118 79.6775 45.072Z" fill="#AB8E63"/>
<path d="M71.1431 21.7765L73.5191 42.5868L71.7576 42.8497L70.7573 22.1657L71.1431 21.7765Z" fill="#100F0D"/>
<path fill-rule="evenodd" clip-rule="evenodd" d="M52.3775 51.9747C50.2917 51.845 47.6665 50.9335 44.874 50.0357C44.2288 49.684 43.5563 49.3188 43.4027 49.1378L42.2079 49.3119L41.2759 50.4658C38.6542 52.1283 37.1043 52.6643 36.9473 52.3331V51.6777C39.9207 51.8996 41.491 48.7657 41.491 48.7657C42.283 48.4039 43.0135 48.3117 43.6792 48.4926L45.5636 49.4485C48.1376 50.2439 50.2576 50.6911 51.9167 50.7867L52.3775 51.9747Z" fill="#100F0D"/>
<path fill-rule="evenodd" clip-rule="evenodd" d="M44.3312 45.6421C42.5527 45.6865 40.5146 45.2803 38.9102 46.8609L39.6748 45.6831C41.0267 45.253 42.4844 44.9628 43.983 45.1608L44.3312 45.6421Z" fill="#100F0D"/>
<path fill-rule="evenodd" clip-rule="evenodd" d="M37.3158 49.0696C38.4799 48.7657 39.8147 48.1513 41.3201 47.2227C39.9683 48.6292 38.5994 49.6363 37.2134 50.2371L37.3158 49.0696Z" fill="#100F0D"/>
<path fill-rule="evenodd" clip-rule="evenodd" d="M47.6528 47.8713C48.7623 48.3459 50.7798 48.916 53.7089 49.5782L53.8079 51.4285L50.5341 50.6126L47.6528 47.8713Z" fill="#AB8E63"/>
<path fill-rule="evenodd" clip-rule="evenodd" d="M51.8655 49.329C49.8582 49.1924 46.779 48.2707 43.7476 47.291C46.4342 48.793 51.2715 50.121 53.8079 50.2678L51.8655 49.329Z" fill="#100F0D"/>
<path fill-rule="evenodd" clip-rule="evenodd" d="M53.1116 66.7495C49.5647 69.419 45.9904 75.3283 42.3889 84.4772C46.7756 76.11 50.4386 70.7606 53.3778 68.429L53.1116 66.7495Z" fill="#100F0D"/>
<path fill-rule="evenodd" clip-rule="evenodd" d="M39.1389 84.9995C38.7327 84.6172 38.2343 83.0024 37.6403 80.1485C37.5242 83.2585 37.5242 85.6652 37.6403 87.3789L39.1389 84.9995Z" fill="#100F0D"/>
<path fill-rule="evenodd" clip-rule="evenodd" d="M66.2305 57.819L66.6674 62.7587L69.1936 65.6638L68.6304 70.962L70.5933 65.3532L66.2305 57.819Z" fill="#AB8E63"/>
<path fill-rule="evenodd" clip-rule="evenodd" d="M22.7561 19.9228C37.3261 21.121 52.6983 21.6365 71.3955 21.2405L71.515 21.7696C53.1523 24.9547 37.6948 24.4938 22.5615 20.626L22.7561 19.9228Z" fill="#100F0D"/>
<path d="M43.5835 21.3361C43.5835 20.6397 44.1434 20.0764 44.8364 20.0764C45.5328 20.0764 46.096 20.6397 46.096 21.3361C46.096 22.0325 45.5328 22.5958 44.8364 22.5958C44.1434 22.5958 43.5835 22.0325 43.5835 21.3361Z" fill="#AB8E63"/>
<path d="M60.2532 64.3565C60.8847 59.1675 61.0895 52.7155 60.8642 45.0038L54.0776 28.4743L63.5816 44.0479C63.9537 56.0746 65.3089 66.1009 61.2431 65.6025C60.9052 65.1792 60.574 64.7627 60.2532 64.3565Z" fill="#182B37"/>
<path d="M47.7825 59.9766L45.3348 61.9224C44.9968 63.1446 45.5396 65.8653 46.9632 70.0848C46.3794 70.8495 45.7922 71.58 45.1948 72.215C44.099 70.2145 43.1739 66.4559 42.4126 60.9461C43.4401 59.9868 45.8025 60.2804 47.7825 59.9766Z" fill="#182B37"/>
<path d="M56.2181 101.109L53.8694 94.5103L54.4907 86.2456C55.0335 89.1097 55.7982 91.4516 56.7779 93.2609L62.6018 99.1018C61.0588 100.307 59.6626 101.707 58.4097 103.304L56.2181 101.109ZM66.5515 91.2672L62.9637 91.7247L60.4784 86.1602L63.9127 87.8227L68.6715 83.7057C68.1424 86.9044 67.4357 89.4238 66.5515 91.2672ZM68.0741 80.4046L61.9566 81.0157L60.7754 76.7382C61.2534 77.619 61.745 78.3597 62.2468 78.906L69.5727 74.9801C69.5318 76.8577 69.0334 78.667 68.0741 80.4046ZM60.9257 74.1335L63.5372 74.2974L67.743 68.907C67.3265 71.6483 66.2136 74.1369 64.3975 76.3798C63.1548 75.953 61.9976 75.202 60.9257 74.1335Z" fill="#182B37"/>
</svg>
